<?xml version="1.0" encoding="utf-8"?>
<!-- Generator: Adobe Illustrator 24.0.3, SVG Export Plug-In . SVG Version: 6.00 Build 0)  -->
<svg version="1.1" id="レイヤー_1" xmlns="http://www.w3.org/2000/svg" xmlns:xlink="http://www.w3.org/1999/xlink" x="0px"
	 y="0px" viewBox="0 0 279 85" style="enable-background:new 0 0 279 85;" xml:space="preserve">
<style type="text/css">
	.st0{fill:#FFFFFF;}
	.st1{fill:#231815;}
</style>
<g>
	<path class="st0" d="M139.5,4c-21.9,0-39.8,17.8-39.8,39.8s17.8,39.8,39.8,39.8s39.8-17.8,39.8-39.8S161.4,4,139.5,4L139.5,4z"/>
	<g>
		<g>
			<path class="st1" d="M150.2,1.4h-8.4c0.9,0.5,1.4,1.5,1.4,2.7c0,1.1-0.3,2.6-0.9,4.2l-4.2,11.6l-7.5-18.5h-6.8
				c1.9,1.4,2.8,4.4,1.4,7.6l-4.9,11.4l-7.5-19H105c1.3,0.9,2.2,2.8,3.3,5.6l7.7,19.3c1,2.6,2.2,4,4.7,5.1l8-18.1l5.5,12.9
				c1.1,2.6,2.2,4,4.7,5.1L150.2,1.4L150.2,1.4z"/>
			<path class="st1" d="M167.7,26.1c-1.9,1.4-4,2.1-6.8,2.1c-1.5,0-2.9-0.1-3.9-0.4v-7.4h2.1c2.5,0,3.4,0.2,4.1,0.9v-4.3h-6.1V11
				c0,0,0.9-0.1,2.9-0.1c2.2,0,3.8,0.4,4.7,1.3V7.8H150c1.2,0.6,1.3,1.6,1.3,5.5v12.6c0,3.9-0.2,4.9-1.3,5.5h16.1L167.7,26.1
				L167.7,26.1z"/>
			<path class="st1" d="M186.8,24c0-7.2-10.9-6.7-10.9-11.1c0-1.3,1.2-2.4,3.2-2.4c2.2,0,4,0.8,6,2.7V8c-2.1-0.5-3.7-0.9-5.8-0.9
				c-4.5,0-9.1,2.7-9.1,7.2c0,8.1,10.9,6.9,10.9,11.5c0,1.6-1.4,2.8-3.9,2.8c-2.8,0-5.5-1.1-8.3-3.6l1.5,5.6
				c2.3,0.8,4.1,1.2,6.2,1.2C182.3,31.9,186.8,28.8,186.8,24L186.8,24z"/>
			<path class="st1" d="M207.7,7.8h-19.2l-1.3,4.5c1.4-1,2.7-1.3,5.1-1.3h2.3v14.9c0,3.9-0.2,4.9-1.4,5.5h8.4
				c-1.2-0.6-1.4-1.6-1.4-5.5V10.9h2c2.1,0,3.6,0.3,4.3,1.3L207.7,7.8L207.7,7.8z"/>
			<path class="st1" d="M218.7,31.3c-1.2-0.6-1.3-1.6-1.3-5.5V13.3c0-3.9,0.2-4.9,1.3-5.5h-8.4c1.2,0.6,1.3,1.6,1.3,5.5v12.6
				c0,3.9-0.2,4.9-1.3,5.5H218.7L218.7,31.3z"/>
			<g>
				<path class="st1" d="M246.7,7.8H239c1.5,0.8,1.7,2.5,1.7,5.1v9.5l-9.9-11.7c-1-1.2-1.7-2.1-2.3-3h-6.8c1.4,0.8,2.1,2.3,2.1,5.5
					v12.9c0,2.6-0.2,4.3-1.7,5.1h7.7c-1.5-0.8-1.7-2.5-1.7-5.1v-9.7l10.2,12.1c1.4,1.7,3.3,2.4,6.7,3V12.9
					C244.9,10.3,245.2,8.6,246.7,7.8L246.7,7.8z"/>
			</g>
			<g>
				<path class="st1" d="M56.1,6.6c-0.8-1.4-2.7-1.7-5.4-1.7h-2.6v19.5c0,4.9,0.2,6.1,1.7,7H40c1.5-0.8,1.7-2,1.7-7V4.9h-2.9
					c-3,0-4.7,0.5-6.5,1.7L34,1.4h23.5L56.1,6.6z"/>
				<path class="st1" d="M74.5,31.3c1.2-0.6,1.4-1.6,1.4-5.5v-5.6H64v5.6c0,3.9,0.2,4.8,1.4,5.5h-7.7c1.2-0.6,1.4-1.6,1.4-5.5V13.2
					c0-3.9-0.2-4.8-1.4-5.5h7.7C64.2,8.4,64,9.3,64,13.2v3.9h11.9v-3.9c0-3.9-0.2-4.8-1.4-5.5h7.7c-1.2,0.6-1.4,1.6-1.4,5.5v12.6
					c0,3.9,0.2,4.8,1.4,5.5H74.5z"/>
				<path class="st1" d="M102.5,26.1c-1.9,1.4-4,2.1-6.8,2.1c-1.5,0-2.9-0.1-3.9-0.4v-7.4h2.1c2.5,0,3.4,0.2,4.1,0.9v-4.3h-6.1V11
					c0,0,0.9-0.1,2.9-0.1c2.2,0,3.8,0.4,4.7,1.3V7.8H84.8c1.2,0.6,1.3,1.6,1.3,5.5v12.6c0,3.9-0.2,4.9-1.3,5.5h16.1L102.5,26.1
					L102.5,26.1z"/>
			</g>
		</g>
	</g>
	<g>
		<path class="st1" d="M111.2,58v-7.5c0-0.8,0-2.1,0-2.5c-0.2,0.4-0.6,1.4-0.9,2.2l-3.4,8l-3.4-8c-0.3-0.8-0.7-1.8-0.9-2.2
			c0,0.4,0,1.6,0,2.5V58h-2V43.8h2.2l3.2,7.5c0.3,0.8,0.8,1.8,1,2.4c0.2-0.6,0.6-1.6,0.9-2.4l3.1-7.5h2.3V58H111.2z"/>
		<path class="st1" d="M118.1,58V43.8h2.1V58H118.1z"/>
		<path class="st1" d="M131.2,52.4V58h-2.1v-5.6l-5.1-8.5h2.5l2.2,3.9c0.5,0.9,1.2,2.3,1.5,2.8c0.2-0.5,0.9-1.9,1.5-2.8l2.2-3.9h2.4
			L131.2,52.4z"/>
		<path class="st1" d="M147,58l-1.2-3.4h-5.7L139,58h-2.2l5.1-14.1h2.2l5.1,14.1H147z M144.1,49.5c-0.3-1-0.9-2.6-1.1-3.2
			c-0.2,0.6-0.7,2.2-1,3.3l-1.1,3.2h4.4L144.1,49.5z"/>
		<path class="st1" d="M161.8,58l-4.1-7.2l-2.6,3.2V58h-2.1V43.8h2.1v4.8c0,0.5,0,2.1,0,2.5c0.2-0.4,1.2-1.5,1.6-2.1l4.2-5.2h2.4
			l-4.1,5.1l5,9H161.8z"/>
		<path class="st1" d="M172.3,58.2c-3.7,0-6-3-6-7.3c0-4.3,2.3-7.3,6-7.3c3.7,0,6,3,6,7.3C178.3,55.2,176,58.2,172.3,58.2z
			 M172.3,45.7c-2.5,0-3.8,2-3.8,5.2c0,3.2,1.4,5.2,3.8,5.2c2.5,0,3.8-2,3.8-5.2C176.2,47.7,174.8,45.7,172.3,45.7z"/>
	</g>
	<g>
		<path class="st1" d="M120.3,80.2l-3.2-5.7l-2.1,2.5v3.2h-1.6V69h1.6v3.8c0,0.4,0,1.6,0,2c0.2-0.3,0.9-1.2,1.3-1.7l3.3-4.1h1.9
			l-3.3,4.1l4,7.1H120.3z"/>
		<path class="st1" d="M129,75.7v4.4h-1.7v-4.4l-4-6.8h2l1.7,3.1c0.4,0.7,1,1.8,1.2,2.2c0.2-0.4,0.8-1.5,1.2-2.2l1.8-3.1h1.9
			L129,75.7z"/>
		<path class="st1" d="M139.3,80.3c-2.9,0-4.7-2.4-4.7-5.8c0-3.4,1.8-5.8,4.7-5.8c2.9,0,4.8,2.4,4.8,5.8
			C144,77.9,142.2,80.3,139.3,80.3z M139.3,70.5c-1.9,0-3,1.6-3,4.1s1.1,4.1,3,4.1c2,0,3-1.6,3-4.1S141.3,70.5,139.3,70.5z"/>
		<path class="st1" d="M150.9,70.6v9.6h-1.7v-9.6H146V69h8.2v1.6H150.9z"/>
		<path class="st1" d="M160.9,80.3c-2.9,0-4.7-2.4-4.7-5.8c0-3.4,1.8-5.8,4.7-5.8c2.9,0,4.8,2.4,4.8,5.8
			C165.7,77.9,163.8,80.3,160.9,80.3z M160.9,70.5c-2,0-3,1.6-3,4.1s1.1,4.1,3,4.1c2,0,3-1.6,3-4.1S162.9,70.5,160.9,70.5z"/>
	</g>
</g>
</svg>
