<svg width="1683" height="313" viewBox="0 0 1683 313" fill="none" xmlns="http://www.w3.org/2000/svg">
<path fill-rule="evenodd" clip-rule="evenodd" d="M69.364 5.64009C69.714 8.19109 70 12.4661 70 15.1401C70 19.7761 70.127 20.0001 72.75 19.9981L75.5 19.9951L75.725 10.4981L75.949 1.00009H72.339H68.728L69.364 5.64009ZM230.834 11.0761L231.239 21.1511L216.618 20.8261L201.997 20.5001L201.999 23.8331L202 27.1651L216.25 26.8441L230.5 26.5231V38.0111V49.5001L212.75 49.4341L195 49.3671V52.5091V55.6511L216.75 55.1981L238.5 54.7451L236.5 57.0091C229.754 64.6431 206.98 82.1361 191.392 91.6561C189.557 92.7771 189.565 92.8781 191.677 95.0551L193.854 97.2981L201.177 92.6291C205.205 90.0621 209.512 87.2401 210.75 86.3581L213 84.7561L212.999 112.128V139.5L239.749 139.219L266.5 138.939V106.719V74.5001L246.183 74.8081L225.865 75.1161L236.183 65.0491L246.5 54.9831L262.251 55.2421L278.003 55.5001L278.001 52.1771L278 48.8541L266.25 49.0081C259.788 49.0931 253.939 49.1261 253.254 49.0811C252.569 49.0371 254.281 46.1881 257.06 42.7501C262.455 36.0741 265.714 31.3251 273.842 18.2931L278.96 10.0851L276.758 8.54309C273.406 6.19509 272.679 6.5831 270.164 12.0661C267.179 18.5731 255.619 35.7801 249.07 43.4641C244.537 48.7841 243.582 49.4281 240.244 49.4271L236.5 49.4261L236.337 38.2131L236.173 27.0001H246.587H257L257.001 23.7501L257.003 20.5001H246.751H236.5L236.845 10.7501L237.19 1.00009H233.81H230.429L230.834 11.0761ZM453.806 13.9981L454.111 27.0001H420.556H387V30.0521V33.1031L420.25 32.9361L453.5 32.7681L453.78 45.4311L454.06 58.0951L428.28 57.7981L402.5 57.5001V93.7501V130L405.5 130.001H408.5V96.8581V63.7161L430.5 63.8291C442.6 63.8921 452.847 63.9561 453.271 63.9711C453.695 63.9871 454.013 82.5621 453.978 105.25L453.913 146.5H456.707H459.5L460 105L460.5 63.5001H482.5H504.5L505 96.9631L505.5 130.425L508.5 130.496L511.5 130.568V94.0341V57.5001L485.75 57.7971L460 58.0951V45.2971V32.5001L493.5 32.7391L527 32.9771V29.9891V27.0001H493.5H460V14.0001V1.00009L456.75 0.998093L453.5 0.996094L453.806 13.9981ZM645.784 11.5951L645.5 22.1911L612.25 22.0521L579 21.9131V25.2061V28.5001L648.75 28.2641L718.5 28.0281L718.817 24.9701L719.133 21.9121L685.817 22.0521L652.5 22.1911L652.216 11.5951L651.932 1.00009H649H646.068L645.784 11.5951ZM1191.5 2.37909C1189.7 3.69509 1189.79 3.9811 1193.59 8.6291C1195.78 11.3081 1198.81 15.1881 1200.33 17.2501L1203.1 21.0001H1182.55H1162V24.0001V27.0001H1192.5H1223V35.5001V44.0001H1196.5H1170V47.0001V50.0001H1196.54H1223.07L1222.79 59.0941L1222.5 68.1871L1189.25 68.0531L1156 67.9181V71.2091V74.5001H1189.25H1222.5L1222.79 82.7501C1223.07 90.7681 1223.15 91.0001 1225.54 91.0001C1227.96 91.0001 1228 90.8651 1228 82.4621V73.9231L1261.5 74.2121L1295 74.5001V71.2621L1295 68.0251L1261.75 68.0581L1228.5 68.0921L1228.21 59.0461L1227.93 50.0001H1254.46H1281V47.0001V44.0001H1254.5H1228V35.5001V27.0001H1258.5H1289V24.0001V21.0001H1267.88C1247.27 21.0001 1246.79 20.9541 1248.13 19.0881C1248.88 18.0361 1251.71 14.1441 1254.41 10.4391C1259.04 4.08109 1259.21 3.62609 1257.47 2.35109C1254.47 0.158093 1253.48 0.701094 1249.48 6.75009C1247.39 9.91309 1244.12 14.4131 1242.22 16.7501L1238.76 21.0001H1224.45H1210.14L1207.9 17.7501C1202.06 9.27509 1195.42 1.00009 1194.45 1.00009C1193.86 1.00009 1192.53 1.62009 1191.5 2.37909ZM1373.94 4.15009C1370.76 11.8291 1359.46 25.1141 1349.6 32.7661L1343.71 37.3431L1345.95 39.1571C1348.93 41.5731 1350.33 40.7551 1360.5 30.6231C1370.76 20.4121 1381.78 5.13409 1379.84 3.83009C1375.56 0.966093 1375.25 0.983093 1373.94 4.15009ZM1412.84 18.0001L1413.23 35.0001H1400.61H1388V38.0001V41.0001H1400.55H1413.1L1412.8 93.0001L1412.5 145.001L1415.77 145H1419.04L1419 95.7501C1418.98 68.6621 1418.97 45.2361 1418.98 43.6911L1419 40.8821L1431 41.1911L1443 41.5001L1443 38.1721L1443 34.8441L1432.75 35.0111C1427.11 35.1021 1421.6 35.1381 1420.5 35.0901C1418.57 35.0061 1418.51 34.4101 1418.8 18.0011L1419.09 1.00009H1415.77H1412.45L1412.84 18.0001ZM1637 9.00009V17.0001H1620.17H1603.33L1603.79 22.5001C1604.04 25.5251 1603.85 27.9981 1603.37 27.9971C1601.98 27.9911 1589.39 16.7631 1586.03 12.5331C1584.35 10.4171 1582.04 7.18209 1580.9 5.34309C1579.25 2.67509 1578.2 2.00609 1575.67 2.02809C1572.93 2.05309 1572.06 2.77009 1569.32 7.27809C1563.16 17.3791 1551.47 29.3451 1540.26 37.0101L1535.13 40.5201L1537.47 42.7791L1539.82 45.0381L1547.16 39.0881C1560.46 28.3101 1568.04 20.3281 1573.64 11.2061L1575.66 7.91109L1580.96 15.0431C1583.88 18.9661 1589.22 24.6091 1592.82 27.5841L1599.38 32.9921L1601.78 30.7461L1604.17 28.5001L1603.83 36.2521L1603.5 44.0051L1606.75 44.0021L1610 44.0001V33.5001V23.0001H1642.5H1675V33.5001V44.0001H1678H1681V30.5001V17.0001H1662H1643V9.00009V1.00009H1640H1637V9.00009ZM1426.27 5.82809L1424.09 7.50009L1428.62 13.5001C1431.1 16.8001 1434.35 21.6371 1435.82 24.2491C1438.68 29.3091 1439.47 29.7181 1442.29 27.5801C1443.95 26.3171 1443.59 25.4911 1437.01 15.6521C1433.12 9.83809 1429.6 4.87309 1429.19 4.61909C1428.78 4.36409 1427.46 4.90909 1426.27 5.82809ZM284 76.5001V147H287.25L290.5 147.001L290.21 79.5001L289.921 12.0001H309.425H328.929L327.071 16.2501C321.921 28.0301 316.622 38.4661 311.204 47.5001L305.207 57.5001L310.38 63.0001C324.313 77.8151 330.444 90.8771 330.482 105.83C330.499 112.811 330.349 113.294 327.325 115.998C323.736 119.208 316.049 120.691 309.093 119.516C305.037 118.83 305 118.852 305 121.912V125L314.25 124.978C332.664 124.934 338.692 117.81 336.039 99.2251C334.044 85.2511 328.863 74.7211 318.253 63.0731L312.398 56.6461L318.141 46.5731C321.3 41.0331 326.778 30.3951 330.314 22.9341C335.703 11.5621 336.544 9.09609 335.511 7.68409C334.413 6.18309 331.555 6.00009 309.14 6.00009H284V76.5001ZM811.77 30.2301L811.5 51.4591L795.5 53.6851C786.7 54.9091 778.064 55.9301 776.309 55.9551C772.538 56.0081 771.579 57.1861 772.457 60.6861C773.057 63.0741 773.403 63.2141 777.301 62.6401C794.76 60.0701 809.636 58.0001 810.641 58.0001C811.536 58.0001 811.931 65.2771 812.202 86.7501C812.519 111.856 812.797 116.039 814.393 119.754C817.841 127.779 824.82 131.254 840 132.503C848.284 133.184 875.607 131.746 889.25 129.911L898 128.733V125.367C898 123.515 897.841 122 897.646 122C897.451 122 891.264 122.941 883.896 124.092C874.49 125.561 865.139 126.231 852.5 126.342C829.121 126.547 824.404 125.259 820.148 117.502C818.75 114.955 818.45 110.148 818.17 85.8101L817.841 57.1211L821.17 56.5521C826.861 55.5791 890.298 47.0001 891.796 47.0001C893.676 47.0001 893.014 48.5251 887.51 56.8801C881.155 66.5261 870.925 77.3201 861.777 84.0341L854.053 89.7011L856.479 91.9811L858.905 94.2601L865.827 89.1281C878.668 79.6091 889.32 67.0351 898.882 50.1101C902.878 43.0361 902.983 42.6381 901.322 40.8041C900.112 39.4661 898.848 39.0721 897.144 39.5001C893.577 40.3951 823.329 50.0001 820.348 50.0001H817.822L818.161 29.4991L818.5 8.99909H815.27L812.04 9.00009L811.77 30.2301ZM1447 14.2501V17.5001H1468H1489V14.2501V11.0001H1468H1447V14.2501ZM988.803 17.5621L988.402 21.0001H1032.7H1077V17.4811V13.9611L1033.1 14.0431L989.204 14.1241L988.803 17.5621ZM3.186 25.2361C3.359 27.0311 3.837 28.3881 4.25 28.2501C4.663 28.1121 18.755 28.0001 35.566 28.0001H66.133L65.816 25.2501L65.5 22.5001L34.186 22.2361L2.871 21.9711L3.186 25.2361ZM79.667 22.6671C79.3 23.0331 79 24.3831 79 25.6671V28.0001H108.918C125.373 28.0001 139.548 28.2731 140.418 28.6071C141.68 29.0911 142 28.4851 142 25.6071V22.0001H111.167C94.208 22.0001 80.033 22.3001 79.667 22.6671ZM1571 35.0881V44.2871L1560.43 43.7481C1551.38 43.2861 1549.95 43.4201 1550.43 44.6861C1550.74 45.4991 1551 68.6931 1551 96.2291V146.294L1564.96 131.897C1573.66 122.925 1579.22 117.905 1579.71 118.575C1580.15 119.166 1584.93 124.906 1590.33 131.331L1600.17 143.012L1602.01 140.756C1603.49 138.932 1603.6 138.213 1602.61 137C1601.93 136.175 1596.32 129.56 1590.15 122.301L1578.93 109.102L1567.99 120.301L1557.06 131.5L1557.03 112.21L1557 92.9201L1577 93.2101L1597 93.5001L1597 68.4651L1597 43.4291L1586.91 43.8351L1576.82 44.2401L1577.13 35.4321L1577.43 26.6231L1574.21 26.2561L1571 25.8891V35.0881ZM1374.58 40.4211C1370.2 49.3721 1360.04 62.9341 1350.81 72.1361C1342.64 80.2911 1342.23 80.8961 1343.89 82.4011C1344.86 83.2801 1346.13 84.0001 1346.7 84.0001C1347.27 84.0001 1351.19 80.3851 1355.41 75.9671L1363.08 67.9341L1362.95 107.217L1362.82 146.5L1365.91 146.6L1369 146.7V103.28V59.8601L1371.87 55.6801C1376.18 49.3931 1383.16 37.8151 1382.81 37.5251C1382.18 37.0021 1378.11 35.0001 1377.68 35.0001C1377.44 35.0001 1376.04 37.4401 1374.58 40.4211ZM1612.77 91.2501L1613.04 142H1643.98H1674.92L1675.21 120.75L1675.5 99.5001L1647.25 99.8201L1619 100.139V89.4561V78.7731L1643.25 79.1481L1667.5 79.5221V60.0111V40.5001H1640H1612.5L1612.77 91.2501ZM25.499 65.0211L25.498 86.0421L47.499 85.8801L69.5 85.7181V116.359V147.001H72.5H75.5V116.376V85.7521L97.75 85.9331L120 86.1141V65.0571V44.0001H72.75H25.5L25.499 65.0211ZM601.789 65.0661L602.078 86.1341L624.04 85.8171L646.002 85.5001L646.001 116.25L646 147H648.986H651.971L652.236 116.369L652.5 85.7391L674.5 85.8881L696.5 86.0381V65.0191V44.0001L649 43.9991L601.5 43.9981L601.789 65.0661ZM1443.19 48.1271L1443.5 51.2541L1455.28 51.0741L1467.06 50.8931L1466.78 98.4471L1466.5 146.001L1469.75 146H1473V98.4031V50.8071L1482.5 51.1531L1492 51.5001L1492 48.2501L1492 45.0001H1467.44H1442.87L1443.19 48.1271ZM1661.5 59.9721C1661.5 73.3101 1661.48 73.4431 1659.25 73.3331C1658.01 73.2721 1648.45 73.1721 1638 73.1111L1619 73.0001V59.4801V45.9601L1640.25 46.2301L1661.5 46.5001V59.9721ZM1591 57.0001V65.0001H1574H1557V57.0001V49.0001H1574H1591V57.0001ZM114 65.0111V80.0221L72.75 79.7611L31.5 79.5001L31.223 64.7501L30.947 50.0001H72.473H114V65.0111ZM690 65.0001V80.0001H649H608V65.0001V50.0001H649H690V65.0001ZM974 55.4491V58.8971L1028.66 58.9391C1058.72 58.9611 1083.47 59.1401 1083.67 59.3351C1084.29 59.9561 1077 77.2531 1073.39 83.7371C1061.31 105.427 1039.46 122.557 1013 131.096C1008.32 132.605 1004.51 133.988 1004.52 134.17C1004.53 134.351 1005.31 135.603 1006.25 136.952L1007.97 139.403L1015.23 137.085C1029.15 132.643 1046.05 123.162 1057.71 113.251C1068.45 104.124 1080.04 86.2711 1087.09 68.0001C1089.31 62.2251 1091.55 57.0791 1092.05 56.5641C1092.61 55.9921 1092.33 54.9211 1091.33 53.8141C1089.78 52.1021 1086.44 52.0001 1031.84 52.0001H974V55.4491ZM1391.66 67.2501C1390.63 85.0361 1386.53 105.144 1381.52 116.88L1379.13 122.5L1381.31 124.228C1382.52 125.178 1383.79 125.966 1384.15 125.978C1384.88 126.003 1389.18 114.268 1391.45 106C1393.89 97.1751 1396.86 78.1421 1397.61 66.6371L1398.3 56.0001H1395.3H1392.31L1391.66 67.2501ZM1430.39 56.6151C1429.65 56.9221 1430.4 60.9311 1432.69 68.7871C1436.07 80.4011 1441.29 104.63 1442.59 114.775C1443.2 119.557 1443.46 119.991 1445.38 119.413C1446.55 119.062 1447.88 118.425 1448.34 117.997C1449.94 116.513 1442.98 82.5451 1437.32 64.2501C1434.8 56.1151 1433.93 55.1561 1430.39 56.6151ZM1590.79 78.6521L1590.5 87.3031L1574 87.1801L1557.5 87.0561L1557.21 78.5281L1556.92 70.0001H1574H1591.08L1590.79 78.6521ZM259.999 91.5001L260 102.5L239.75 102.333L219.5 102.167L219.212 92.4041C219.053 87.0351 219.108 82.1601 219.334 81.5711C219.607 80.8591 226.484 80.5001 239.872 80.5001H259.999V91.5001ZM1157 96.0001V99.0001H1188H1219V96.6071C1219 95.2911 1218.29 93.9411 1217.42 93.6071C1216.55 93.2731 1202.6 93.0001 1186.42 93.0001H1157V96.0001ZM1233.25 93.7121C1232.56 93.9621 1232 95.2411 1232 96.5551V98.9431L1262.25 99.2211C1278.89 99.3751 1292.76 99.4071 1293.08 99.2941C1293.4 99.1811 1293.46 97.7001 1293.21 96.0031L1292.76 92.9181L1263.63 93.0881C1247.61 93.1821 1233.94 93.4631 1233.25 93.7121ZM35.649 101.963C28.81 111.515 16.758 123.732 8.927 129.05C5.735 131.217 2.913 133.332 2.654 133.75C2.396 134.168 3.042 135.569 4.09 136.863L5.995 139.216L13.605 133.387C22.361 126.68 32.921 115.694 40.643 105.26C43.589 101.277 46 97.8421 46 97.6251C46 97.4081 44.934 96.5311 43.63 95.6771C41.297 94.1481 41.175 94.2441 35.649 101.963ZM100.539 96.3481C98.806 97.6151 99.024 98.1361 104.207 105.098C112.365 116.054 121.231 125.291 130.65 132.646L139.028 139.188L140.921 136.849C141.963 135.562 142.604 134.168 142.346 133.75C142.087 133.332 139.292 131.235 136.133 129.091C128.222 123.718 114.175 109.443 109.033 101.55C104.583 94.7211 103.593 94.1141 100.539 96.3481ZM612.955 101.25C606.632 110.367 593.589 123.485 585.161 129.202L577.822 134.181L580.05 136.553L582.278 138.925L586.809 135.712C596.764 128.655 608.345 117.003 617.159 105.179C622.246 98.3531 622.65 97.4591 621.159 96.3251C618.378 94.2101 617.453 94.7651 612.955 101.25ZM676.806 96.3511C675.269 97.5191 675.661 98.3711 681.043 105.569C688.406 115.417 698.224 125.503 707.913 133.174L715.326 139.043L717.676 136.835C720.344 134.328 720.532 134.609 712.5 129.07C704.065 123.254 692.73 111.867 686.3 102.75C683.293 98.4871 680.308 95.0141 679.667 95.0321C679.025 95.0491 677.738 95.6431 676.806 96.3511ZM1217.53 105.25C1209.26 119.409 1190.2 131.907 1168.41 137.458C1162.96 138.846 1157.74 139.986 1156.81 139.991C1154.19 140.005 1153.83 141.568 1155.87 144.084L1157.72 146.376L1166.61 144.052C1194.33 136.804 1214.89 123.075 1223.51 106.047L1225.26 102.594L1227.38 106.41C1233.68 117.761 1244.12 127.134 1258.79 134.618C1267.63 139.131 1282.14 144.235 1289.59 145.454C1293.26 146.053 1293.87 145.852 1295.38 143.544C1296.67 141.571 1296.77 140.88 1295.79 140.605C1295.08 140.407 1289.61 139.065 1283.64 137.621C1260.96 132.136 1242.03 119.927 1233.47 105.25C1231.66 102.149 1231.29 102 1225.5 102C1219.71 102 1219.34 102.149 1217.53 105.25ZM1669 121V137H1644H1619V121V105H1644H1669V121ZM259.999 120.75V133.5L239.749 133.332L219.5 133.163L219.22 120.582L218.94 108H239.47H260L259.999 120.75ZM313.92 220.01C304.556 221.595 295.906 228.438 291.944 237.394C288.961 244.137 287.778 254.166 288.961 262.671C290.825 276.079 297.29 285.587 307.659 290.174C313.376 292.702 324.463 293.643 329.587 292.034C335.894 290.054 342.932 284.874 346.619 279.5L350.048 274.5L347.789 272.649C345.672 270.915 345.466 270.906 344.515 272.51C338.517 282.623 331.56 287 321.482 287C312.631 287 306.774 284.687 302.057 279.328C296.762 273.312 294.593 266.577 294.545 256C294.482 242.156 299.129 232.637 308.347 227.732C311.638 225.98 314.162 225.522 320.507 225.523C327.446 225.525 329.144 225.894 333.231 228.289C336.352 230.119 338.861 232.65 340.651 235.777C342.139 238.374 343.443 240.629 343.549 240.787C343.956 241.394 349 238.634 349 237.804C349 236.423 345.92 231.805 342.57 228.162C338.584 223.829 333.841 221.442 326.535 220.091C320.081 218.898 320.477 218.901 313.92 220.01ZM648.854 220.353C635.636 223.265 627.08 233.84 625.117 249.689C622.427 271.41 631.883 288.236 648.82 291.868C665.406 295.425 678.976 289.126 685.591 274.8C688.313 268.906 688.5 267.694 688.5 255.979C688.5 243.841 688.399 243.253 685.208 236.771C683.252 232.799 680.252 228.66 677.817 226.576C670.875 220.634 659.082 218.1 648.854 220.353ZM729 220.337C714.01 223.752 705 237.186 705 256.121C705 265.06 707.519 274.13 711.697 280.237C719.158 291.142 738.357 296.195 750.475 290.445C755.366 288.124 762.225 281.855 764.505 277.621C766.415 274.074 766.415 274.023 764.467 272.551C761.994 270.681 761 270.626 761 272.359C761 274.743 753.132 282.758 748.673 284.916C743.047 287.64 732.233 287.743 726.478 285.129C716.809 280.737 711.874 272.072 711.211 258.323C710.637 246.437 712.602 239.771 718.67 233.022C725.248 225.706 732.704 223.671 744.03 226.1C749.899 227.358 754.876 231.227 758.173 237.094C760.671 241.538 760.98 241.654 763.913 239.25L766.048 237.5L762.561 232.344C760.643 229.509 757.737 226.237 756.103 225.073C749.344 220.261 738.021 218.282 729 220.337ZM1506.4 220.429C1502.74 222.02 1499.17 226.674 1498.53 230.666C1498.29 232.225 1497.82 235.188 1497.5 237.25C1496.91 241 1496.91 241 1491.95 241C1487.08 241 1487 241.051 1487 244.097C1487 247.192 1487 247.193 1492 246.847L1497 246.5V269.25L1497 292L1500.25 292.001L1503.5 292.002L1503.2 269.501L1502.89 247H1508.95H1515V244V241H1508.87H1502.74L1503.43 235.75C1504.65 226.473 1507.62 224.203 1517.08 225.323C1519.79 225.644 1522 225.514 1522 225.035C1522 224.556 1522.25 223.505 1522.56 222.701C1523.8 219.481 1512.29 217.864 1506.4 220.429ZM0 256V292H2.75H5.5V256V220H2.75H0V256ZM23.194 235.305C8.498 250.025 7.984 250.676 9.785 252.305C10.815 253.237 12.017 254 12.457 254C12.897 254 20.313 247.025 28.936 238.501C37.56 229.976 45.49 222.341 46.558 221.533C48.35 220.177 48.114 220.061 43.488 220.032L38.476 220L23.194 235.305ZM505.5 256V292H508.725H511.95L512.225 275.841L512.5 259.682L529.5 275.814L546.5 291.946L551.5 291.941C556.161 291.937 556.364 291.835 554.5 290.444C553.4 289.623 544.518 281.649 534.761 272.725L517.023 256.5L535.5 238.25L553.977 220H549.622C545.318 220 545.078 220.192 528.651 236.75L512.033 253.5L512.016 236.75L512 220H508.75H505.5V256ZM561.368 222.25C562.255 223.488 568.16 233.06 574.49 243.522L586 262.543V277.272V292L589.25 292.001L592.5 292.003L592.175 278.034L591.85 264.065L601.588 246.783C606.944 237.277 612.603 227.619 614.163 225.32C615.723 223.021 617 220.883 617 220.57C617 220.256 615.272 220 613.161 220C609.938 220 609.122 220.442 608.085 222.75C605.651 228.163 589.791 256 589.152 255.98C588.793 255.969 583.775 247.891 578 238.029L567.5 220.099L563.628 220.049C559.799 220.001 559.774 220.025 561.368 222.25ZM784 256.197V292.5H806H828V289.25V286H809H790V272.453V258.907L806.501 259.203L823.003 259.5L823.001 256.175C823 253.17 822.735 252.867 820.25 253.031C818.737 253.13 811.313 253.164 803.75 253.106L790 253V239.5V226H808H826V223.18V220.36L805 220.127L784 219.894V256.197ZM846.346 222.158C846.69 223.446 846.979 239.688 846.986 258.25L847 292H850.048H853.095L852.798 275.999L852.5 259.997L861.125 259.999L869.751 260L877.76 272.75C882.165 279.762 886.508 286.962 887.411 288.75C888.848 291.596 889.545 292 893.026 292C895.212 292 897 291.823 897 291.606C897 291.389 894.624 287.677 891.719 283.356C884.858 273.147 876 259.234 876 258.664C876 258.418 877.237 257.908 878.75 257.531C882.965 256.479 888.047 252.132 889.707 248.159C891.96 242.766 891.113 232.372 888.072 228.102C883.796 222.096 878.636 220.578 861.109 220.172L845.718 219.815L846.346 222.158ZM933 220.292C933 220.618 907.696 287.485 906.526 290.25C905.906 291.716 906.331 292 909.143 292H912.5L917.382 278.472L922.264 264.945L935.826 265.223L949.389 265.5L954.109 278.5L958.828 291.5L962.297 291.803L965.766 292.107L962.058 282.803C960.019 277.687 953.884 261.469 948.425 246.764C938.746 220.69 938.432 220.027 935.75 220.014C934.237 220.006 933 220.131 933 220.292ZM1003.5 256V292L1006.5 292.001H1009.5L1009.17 263.501C1008.99 247.825 1009.21 235.003 1009.67 235.006C1010.13 235.009 1013.39 241.196 1016.93 248.756C1032.41 281.817 1031.93 280.987 1034.6 279.771C1035.92 279.17 1037 278.367 1037 277.987C1037 277.606 1031.56 265.866 1024.91 251.897C1018.26 237.929 1012.21 225.037 1011.46 223.25C1010.32 220.514 1009.58 220 1006.8 220H1003.5V256ZM1062.36 235.25C1058.43 243.638 1052.25 256.702 1048.63 264.283L1042.05 278.066L1044.53 279.196C1045.89 279.817 1047.19 280.139 1047.42 279.912C1047.64 279.686 1052.39 269.825 1057.97 258C1063.55 246.175 1068.56 236.059 1069.09 235.519C1069.72 234.885 1069.96 244.682 1069.78 263.27L1069.5 292.001H1072.75L1076 292V256V220H1072.75C1069.54 220 1069.42 220.178 1062.36 235.25ZM1560.57 249.775C1554.56 266.124 1548.4 282.313 1546.88 285.75L1544.12 292H1548.06C1551.13 292 1552.01 291.611 1552.05 290.25C1552.08 289.288 1554.06 283.325 1556.44 277L1560.77 265.5L1574.27 265.223L1587.77 264.945L1592.38 277.554C1594.92 284.488 1597 290.576 1597 291.081C1597 291.586 1598.62 292 1600.61 292C1603.65 292 1604.1 291.726 1603.5 290.25C1599.7 280.97 1578 222.291 1578 221.3C1578 220.495 1576.76 220.009 1574.75 220.025L1571.5 220.05L1560.57 249.775ZM366.667 223.667C365.478 224.855 365.961 228.723 367.452 229.96C370.517 232.504 374.742 228.914 373.455 224.859C372.872 223.022 368.142 222.191 366.667 223.667ZM172 233.06V241H166H160V244.092V247.185L165.75 246.842L171.5 246.5L172 266.148C172.454 283.977 172.685 286.003 174.5 288.036C178.531 292.551 186.264 294.198 192.774 291.929C195.638 290.93 195.778 290.66 194.83 287.943C193.985 285.518 193.506 285.194 191.973 286.014C188.741 287.744 182.189 287.189 180 285C178.148 283.148 178 281.667 178 265C178 251.328 178.301 246.973 179.25 246.886C179.938 246.823 183.343 246.854 186.818 246.954L193.137 247.137L192.818 243.895L192.5 240.653L185.293 240.892L178.086 241.131L177.793 233.334C177.503 225.624 177.469 225.535 174.75 225.328L172 225.12V233.06ZM397.419 225.917C397.188 226.146 397 229.633 397 233.667V241H391.5C386.019 241 386 241.011 386 244.092V247.184L391.25 246.842L396.5 246.5L397 266.147C397.554 287.908 397.796 288.708 404.718 291.638C410.849 294.233 421.817 292.571 420.539 289.24C420.242 288.468 420 287.44 420 286.956C420 286.472 417.188 286.332 413.75 286.646C408.028 287.168 407.308 287.01 405.226 284.768C403.013 282.386 402.96 281.841 403.226 264.41L403.5 246.5L410.818 246.809L418.135 247.118L417.818 243.885L417.5 240.653L410.25 240.893L403 241.134V233.173C403 225.243 402.99 225.212 400.419 225.356C398.999 225.435 397.649 225.688 397.419 225.917ZM665.239 226.372C671.576 228.279 676.175 232.084 679.589 238.246C682.378 243.281 682.498 244.022 682.452 256C682.399 269.55 681.521 272.85 676.328 279.022C667.888 289.053 648.419 289.85 638.749 280.56C632.094 274.167 628.803 260.908 630.924 249.037C632.267 241.524 636.795 232.918 641.058 229.78C647.29 225.191 656.844 223.845 665.239 226.372ZM1660.67 225.667C1660.3 226.033 1660 229.633 1660 233.667V241H1654.5C1649.03 241 1649 241.014 1649 244.076C1649 247.054 1649.14 247.146 1653.25 246.983C1655.59 246.89 1658.01 246.856 1658.64 246.907C1659.44 246.972 1659.89 252.653 1660.14 265.794C1660.44 281.268 1660.8 285.04 1662.18 287.145C1665.4 292.061 1674.17 294.406 1680.44 292.025C1682.42 291.271 1683 290.354 1683 287.99C1683 285.274 1682.78 285.046 1681.07 285.965C1677.9 287.657 1671.46 287.196 1668.86 285.09C1666.56 283.23 1666.49 282.717 1666.19 265.09C1665.83 244.568 1664.87 246.489 1675.25 246.948L1681 247.202V244.101V241H1673.39H1665.78L1666.16 233.518C1666.44 227.888 1666.2 225.908 1665.19 225.518C1663.33 224.807 1661.46 224.869 1660.67 225.667ZM878.41 228.001C883.152 230.444 885.392 234.316 885.308 239.926C885.151 250.277 879.113 254 862.48 254H852V240.667C852 233.333 852.336 226.997 852.747 226.587C854.109 225.224 875.284 226.391 878.41 228.001ZM941.489 245C944.053 251.875 946.23 257.882 946.326 258.348C946.481 259.105 925.99 259.323 925.24 258.573C924.997 258.331 931.015 241.586 934.545 232.683C935.621 229.969 936.393 231.339 941.489 245ZM1580.49 245.963C1583 252.731 1584.93 258.405 1584.76 258.573C1584.01 259.323 1563.52 259.105 1563.69 258.348C1563.85 257.629 1569.01 243.816 1572.99 233.5C1574.43 229.749 1574.49 229.852 1580.49 245.963ZM120.637 241.465C108.922 245.641 103.023 261.247 107.43 276.406C112.144 292.623 132.389 298.541 144.342 287.197C153.606 278.404 154.563 259.081 146.277 248.142C141.098 241.305 129.534 238.293 120.637 241.465ZM218.684 241.449C208.771 244.984 203.982 253.306 204.022 266.928C204.07 283.624 214.358 294.047 229.545 292.788C239.875 291.931 247.26 284.37 249.279 272.579C252.943 251.193 236.96 234.931 218.684 241.449ZM1167.35 241.092C1163.25 242.279 1158.44 247.822 1157.6 252.33C1156.03 260.665 1161.37 265.522 1176.46 269.502C1187.78 272.486 1191.08 278.072 1185.08 284.077C1182.43 286.72 1181.52 287 1175.53 287C1167.91 287 1164.32 285.497 1160.62 280.77L1158.06 277.5L1155.82 279.74L1153.57 281.98L1157.48 285.982C1162.82 291.452 1168.31 293.41 1176.46 292.756C1186.41 291.956 1192.4 287.46 1193.64 279.858C1194.95 271.763 1189.85 266.777 1176.94 263.537C1173.4 262.648 1169.32 261.459 1167.88 260.894C1162.53 258.796 1161.68 252.243 1166.2 248.028C1167.88 246.468 1169.73 246 1174.25 246C1180.33 246 1183.02 246.901 1186.58 250.14C1188.63 251.998 1188.7 251.994 1190.58 249.908C1192.49 247.797 1192.48 247.768 1189.15 244.986C1183.85 240.562 1174.78 238.941 1167.35 241.092ZM1221.55 240.727C1217.38 241.79 1211.99 246.168 1209.38 250.611C1206.08 256.238 1204.95 268.181 1207.02 275.552C1209.99 286.179 1218.96 292.98 1230 292.98C1236.31 292.98 1244.09 289.795 1247.91 285.643C1250.27 283.085 1250.28 282.971 1248.49 280.986L1246.65 278.951L1243.57 281.856C1239 286.176 1236.78 287 1229.71 287C1224.68 287 1222.56 286.506 1219.9 284.711C1215.91 282.028 1212.31 275.925 1211.83 271.065L1211.5 267.631L1228.53 267.889C1237.9 268.032 1246.84 267.827 1248.41 267.434C1251.22 266.728 1251.25 266.649 1250.71 260.765C1249.53 247.695 1241.34 239.865 1229.14 240.116C1226.04 240.18 1222.62 240.455 1221.55 240.727ZM1338.15 242.512C1332.91 245.507 1333 245.498 1333 243C1333 241.444 1332.33 241 1330 241H1327V266.5V292H1330H1333V274.468C1333 254.678 1333.79 251.32 1339.19 248.026C1343.84 245.187 1351.07 245.294 1354.48 248.25C1358.03 251.326 1359.36 260.598 1358.8 278.25L1358.36 292L1361.43 292.001H1364.5V274.251C1364.5 254.354 1365.2 251.274 1370.49 248.009C1375.15 245.127 1382.95 245.25 1385.76 248.25C1389.45 252.188 1390 255.547 1390 274.065V292H1393.1H1396.21L1395.85 272.25C1395.5 253.385 1395.37 252.303 1392.99 248.099C1390.06 242.925 1385.19 240 1379.51 240C1373.48 240 1368.99 241.614 1365.43 245.067L1362.23 248.168L1360.74 246.04C1356.5 239.99 1345.55 238.28 1338.15 242.512ZM1449.18 241.138C1447.35 241.665 1443.95 244 1441.62 246.328C1432.58 255.37 1431.6 272.242 1439.43 284.077C1443.3 289.914 1448.9 292.449 1458 292.477C1464.75 292.498 1465.91 292.202 1469.64 289.52C1477.46 283.883 1480.01 278.113 1479.99 266.007C1479.97 247.442 1466.11 236.26 1449.18 241.138ZM1629.5 241.206C1627.85 241.783 1625.49 243.176 1624.25 244.302L1622 246.349V243.674C1622 241.37 1621.59 241 1619 241H1616V266.5V292H1619H1622V274.901C1622 256.43 1622.62 253.582 1627.64 248.871C1629.82 246.828 1631.13 246.511 1637.09 246.577C1640.89 246.619 1644 246.318 1644 245.908C1644 245.499 1644.25 244.505 1644.56 243.701C1645.72 240.68 1635.74 239.027 1629.5 241.206ZM52.357 242.25C52.671 242.938 57.222 254.049 62.469 266.942L72.009 290.383L68.942 296.942C64.778 305.844 62.598 308 57.76 308C55.62 308 53.045 307.559 52.038 307.02C50.53 306.213 50.095 306.486 49.573 308.566C49.224 309.955 49.204 311.521 49.528 312.046C49.853 312.571 53.207 313 56.982 313C62.933 313 64.262 312.651 66.967 310.374C71.187 306.823 72.625 303.842 85.714 271.5C91.946 256.1 97.308 242.938 97.629 242.25C98.036 241.381 97.183 241 94.836 241H91.458L83.575 261C79.239 272 75.424 280.997 75.096 280.993C74.768 280.989 70.934 271.989 66.576 260.993L58.651 241H55.219C52.835 241 51.96 241.382 52.357 242.25ZM366.5 266.5V292H369.75H373V266.5V241H369.75H366.5V266.5ZM426 241.535C426 241.83 426.616 243.067 427.37 244.285C428.123 245.503 432.669 256.416 437.47 268.535L446.201 290.57L443.004 297.336C441.246 301.057 438.866 304.979 437.715 306.051C435.437 308.173 429.17 308.696 426.046 307.025C424.525 306.211 424.138 306.499 423.704 308.769C423.418 310.265 423.394 311.829 423.651 312.244C423.908 312.66 427.401 313 431.413 313C443.128 313 444.043 311.671 460.002 271.5C466.12 256.1 471.37 242.938 471.67 242.25C472.045 241.389 471.171 241.005 468.857 241.017L465.5 241.034L457.517 261.484C453.126 272.731 449.278 281.611 448.965 281.217C448.653 280.823 444.889 271.613 440.603 260.75L432.809 241H429.404C427.532 241 426 241.241 426 241.535ZM1098.01 258.75C1098.01 268.609 1098.5 278.278 1099.12 280.5C1099.77 282.865 1101.8 286.002 1104.07 288.173C1107.21 291.163 1108.95 291.975 1113.45 292.537C1120.48 293.415 1124.87 292.58 1129.4 289.504L1133 287.06V289.53C1133 291.608 1133.48 292 1136 292H1139V266.5V241H1136.06H1133.12L1132.81 259.75C1132.53 276.663 1132.3 278.761 1130.5 281.166C1127.3 285.435 1123.76 287 1117.32 287C1105.55 287 1104 283.739 1104 259.032V241H1101H1098L1098.01 258.75ZM1267.18 261.25C1267.46 278.799 1267.75 281.906 1269.34 284.546C1274.79 293.53 1289.52 295.622 1299.25 288.793L1302 286.864V289.432C1302 291.567 1302.46 292 1304.75 292H1307.5V266.501V241.001L1304.5 241H1301.5V259.294C1301.5 275.243 1301.27 277.941 1299.7 280.342C1296.76 284.828 1292.23 286.992 1285.77 286.996C1280.84 286.999 1279.57 286.588 1276.77 284.084L1273.5 281.168L1273.19 261.084L1272.88 241H1269.87H1266.85L1267.18 261.25ZM236.376 248.511C237.611 249.32 239.719 251.899 241.06 254.241C244.253 259.82 244.55 272.388 241.627 278.27C238.562 284.437 234.724 286.5 226.316 286.5C219.699 286.5 218.883 286.263 215.984 283.5C211.451 279.18 209.771 274.583 209.771 266.5C209.771 258.564 211.45 253.82 215.69 249.782C220.576 245.127 230.3 244.529 236.376 248.511ZM1237.92 247.456C1240.96 249.029 1245 256.083 1245 259.816C1245 261.973 1244.8 262 1228.5 262C1210.31 262 1210.65 262.14 1213.36 255.718C1215.16 251.45 1219.56 247.206 1223.4 246.03C1227.3 244.835 1234.15 245.508 1237.92 247.456ZM137.605 247.901C142.954 251.163 145.325 256.257 145.759 265.423C146.088 272.384 145.82 274.114 143.821 277.941C140.522 284.255 137.219 286.33 129.739 286.791C124.466 287.116 122.958 286.812 120 284.83C109.194 277.588 109.132 255.412 119.898 248.258C124.323 245.317 133.078 245.141 137.605 247.901ZM1465 247.499C1477.81 254.122 1477.76 278.901 1464.93 285.536C1460.69 287.731 1452.41 287.414 1448.34 284.899C1442.94 281.563 1440.56 275.957 1440.53 266.5C1440.49 257.15 1442.65 251.875 1447.98 248.25C1451.95 245.554 1460.51 245.176 1465 247.499ZM10.47 260.033C8.588 262.112 8.64 262.177 24.041 277.009L39.5 291.897L44.464 291.949C48.675 291.992 49.206 291.796 47.964 290.659C47.159 289.922 40.425 283.766 33 276.979C25.575 270.193 17.893 263.134 15.93 261.293L12.36 257.945L10.47 260.033Z" fill="black"/>
</svg>
