<svg xmlns="http://www.w3.org/2000/svg" width="322.11" height="51.93" viewBox="0 0 322.11 51.93">
  <g id="header_logo" transform="translate(-45.288 -18.536)">
    <path id="パス_484" data-name="パス 484" d="M.288-12.96H9.72v1.044h-4.1V0H4.392V-11.916H.288ZM10.944,0V-12.96h1.08v4.932a6.859,6.859,0,0,1,1.341-1.116,3.085,3.085,0,0,1,1.665-.432,4.251,4.251,0,0,1,1.6.3,2.733,2.733,0,0,1,1.242,1.035,2.322,2.322,0,0,1,.4,1.035A9.4,9.4,0,0,1,18.342-6.1V0h-1.08V-6.084a2.778,2.778,0,0,0-.558-1.89A2.369,2.369,0,0,0,14.85-8.6a2.631,2.631,0,0,0-.918.153,2.889,2.889,0,0,0-.747.405,2.713,2.713,0,0,0-.567.576,2.673,2.673,0,0,0-.36.684,3.433,3.433,0,0,0-.2.864q-.036.414-.036.9V0Zm16.4-5.31A4.28,4.28,0,0,0,27.153-6.6a3.008,3.008,0,0,0-.558-1.044,2.656,2.656,0,0,0-.927-.7A2.984,2.984,0,0,0,24.39-8.6a2.841,2.841,0,0,0-1.269.27,2.918,2.918,0,0,0-.936.72,3.621,3.621,0,0,0-.621,1.044,4.841,4.841,0,0,0-.306,1.26Zm-6.084.9a5.06,5.06,0,0,0,.2,1.431,3.457,3.457,0,0,0,.585,1.17,2.833,2.833,0,0,0,.981.792,3.02,3.02,0,0,0,1.368.3,2.976,2.976,0,0,0,1.818-.558,2.687,2.687,0,0,0,1.008-1.584h1.206A5.815,5.815,0,0,1,27.9-1.629a3.8,3.8,0,0,1-.81.99,3.5,3.5,0,0,1-1.152.657A4.666,4.666,0,0,1,24.39.252a4.52,4.52,0,0,1-1.926-.378,3.632,3.632,0,0,1-1.332-1.035,4.367,4.367,0,0,1-.774-1.548,7.018,7.018,0,0,1-.252-1.917,6.108,6.108,0,0,1,.3-1.926,4.9,4.9,0,0,1,.846-1.575A3.932,3.932,0,0,1,22.59-9.189a4.048,4.048,0,0,1,1.8-.387,3.717,3.717,0,0,1,3.024,1.323,5.812,5.812,0,0,1,1.08,3.843ZM34.992,0V-12.96h1.872L41.112-1.53h.036l4.176-11.43h1.854V0H45.954V-11.556h-.036L41.67,0H40.518L36.252-11.556h-.036V0ZM55.836-9.324h1.08V0h-1.08V-1.3q-.216.252-.486.522a3.689,3.689,0,0,1-.621.5A3.564,3.564,0,0,1,53.91.1a3.476,3.476,0,0,1-1.08.153,4.107,4.107,0,0,1-1.566-.261,2.563,2.563,0,0,1-1.017-.729,2.89,2.89,0,0,1-.558-1.089,5.108,5.108,0,0,1-.171-1.359V-9.324H50.6V-3.2a2.723,2.723,0,0,0,.558,1.845,2.324,2.324,0,0,0,1.836.639,2.678,2.678,0,0,0,1.2-.261,2.5,2.5,0,0,0,.891-.729,3.477,3.477,0,0,0,.558-1.116,4.849,4.849,0,0,0,.2-1.422ZM59.8-2.916a2.741,2.741,0,0,0,.909,1.7,3.08,3.08,0,0,0,1.881.5,3.256,3.256,0,0,0,1.026-.144,2.061,2.061,0,0,0,.711-.387,1.669,1.669,0,0,0,.423-.549,1.5,1.5,0,0,0,.144-.648,1.193,1.193,0,0,0-.441-1.017,3.328,3.328,0,0,0-1.107-.522,14.255,14.255,0,0,0-1.44-.324,7.044,7.044,0,0,1-1.44-.405,2.884,2.884,0,0,1-1.107-.774,2.091,2.091,0,0,1-.441-1.422,2.43,2.43,0,0,1,.855-1.917,3.565,3.565,0,0,1,2.421-.747,4.132,4.132,0,0,1,2.457.675A3.087,3.087,0,0,1,65.79-6.642h-1.1a2.019,2.019,0,0,0-.819-1.521,3.05,3.05,0,0,0-1.7-.441,2.423,2.423,0,0,0-1.566.441A1.426,1.426,0,0,0,60.066-7a1.133,1.133,0,0,0,.441.963,3.594,3.594,0,0,0,1.107.54q.666.207,1.44.369a7.093,7.093,0,0,1,1.44.459,3.152,3.152,0,0,1,1.107.8,2.062,2.062,0,0,1,.441,1.4,2.367,2.367,0,0,1-.288,1.179,2.507,2.507,0,0,1-.792.855,3.684,3.684,0,0,1-1.2.513,6.345,6.345,0,0,1-1.521.171A4.109,4.109,0,0,1,60.777.009a3.185,3.185,0,0,1-1.089-.675,3.113,3.113,0,0,1-.7-1.008A3.55,3.55,0,0,1,58.7-2.916ZM74.556-5.31A4.28,4.28,0,0,0,74.367-6.6a3.008,3.008,0,0,0-.558-1.044,2.656,2.656,0,0,0-.927-.7A2.984,2.984,0,0,0,71.6-8.6a2.841,2.841,0,0,0-1.269.27,2.918,2.918,0,0,0-.936.72,3.621,3.621,0,0,0-.621,1.044,4.841,4.841,0,0,0-.306,1.26Zm-6.084.9a5.06,5.06,0,0,0,.2,1.431,3.457,3.457,0,0,0,.585,1.17,2.833,2.833,0,0,0,.981.792,3.02,3.02,0,0,0,1.368.3,2.976,2.976,0,0,0,1.818-.558A2.687,2.687,0,0,0,74.43-2.862h1.206a5.815,5.815,0,0,1-.522,1.233,3.8,3.8,0,0,1-.81.99,3.5,3.5,0,0,1-1.152.657A4.666,4.666,0,0,1,71.6.252a4.52,4.52,0,0,1-1.926-.378,3.632,3.632,0,0,1-1.332-1.035,4.367,4.367,0,0,1-.774-1.548,7.018,7.018,0,0,1-.252-1.917,6.108,6.108,0,0,1,.3-1.926,4.9,4.9,0,0,1,.846-1.575A3.932,3.932,0,0,1,69.8-9.189a4.048,4.048,0,0,1,1.8-.387,3.717,3.717,0,0,1,3.024,1.323,5.812,5.812,0,0,1,1.08,3.843Zm15.3-4.914h1.08V0h-1.08V-1.3q-.216.252-.486.522a3.689,3.689,0,0,1-.621.5A3.564,3.564,0,0,1,81.846.1a3.476,3.476,0,0,1-1.08.153A4.107,4.107,0,0,1,79.2-.009a2.563,2.563,0,0,1-1.017-.729,2.889,2.889,0,0,1-.558-1.089,5.107,5.107,0,0,1-.171-1.359V-9.324h1.08V-3.2a2.723,2.723,0,0,0,.558,1.845,2.324,2.324,0,0,0,1.836.639,2.678,2.678,0,0,0,1.2-.261,2.5,2.5,0,0,0,.891-.729,3.477,3.477,0,0,0,.558-1.116,4.849,4.849,0,0,0,.2-1.422ZM88.038,0h-1.08V-9.324h1.08v1.4h.036a2.843,2.843,0,0,1,1.188-1.233,3.471,3.471,0,0,1,1.692-.423,3.636,3.636,0,0,1,1.1.144,2.476,2.476,0,0,1,.765.387,2.228,2.228,0,0,1,.522.567,3.836,3.836,0,0,1,.351.7,3.14,3.14,0,0,1,1.251-1.359,3.586,3.586,0,0,1,1.791-.441,3.135,3.135,0,0,1,1.521.315,2.279,2.279,0,0,1,.873.828,3.193,3.193,0,0,1,.4,1.179,9.293,9.293,0,0,1,.1,1.368V0H98.55V-6.444a2.627,2.627,0,0,0-.423-1.584A1.842,1.842,0,0,0,96.552-8.6a2.632,2.632,0,0,0-1.143.261,2.643,2.643,0,0,0-.963.8,2.083,2.083,0,0,0-.3.549,4.613,4.613,0,0,0-.189.657,5.368,5.368,0,0,0-.1.684q-.027.342-.027.63V0h-1.08V-6.444a2.627,2.627,0,0,0-.423-1.584A1.843,1.843,0,0,0,90.756-8.6a2.632,2.632,0,0,0-1.143.261,2.643,2.643,0,0,0-.963.8,2.083,2.083,0,0,0-.3.549,4.614,4.614,0,0,0-.189.657,5.368,5.368,0,0,0-.1.684q-.027.342-.027.63Zm22.05.252A4.853,4.853,0,0,1,108.4-.072a3.769,3.769,0,0,1-1.368-.918,4.407,4.407,0,0,1-.927-1.53,6.124,6.124,0,0,1-.342-2.142,6.58,6.58,0,0,1,.27-1.917,4.526,4.526,0,0,1,.81-1.557,3.844,3.844,0,0,1,1.35-1.053,4.339,4.339,0,0,1,1.89-.387A4.384,4.384,0,0,1,112-9.189a3.891,3.891,0,0,1,1.35,1.044,4.309,4.309,0,0,1,.8,1.557,6.885,6.885,0,0,1,.261,1.926,6.238,6.238,0,0,1-.306,2.016,4.539,4.539,0,0,1-.873,1.548,3.844,3.844,0,0,1-1.368,1A4.37,4.37,0,0,1,110.088.252Zm3.168-4.914a6.368,6.368,0,0,0-.18-1.548,3.667,3.667,0,0,0-.558-1.251,2.68,2.68,0,0,0-.972-.837,3.157,3.157,0,0,0-1.458-.306,2.955,2.955,0,0,0-1.449.333,2.836,2.836,0,0,0-.981.882,3.878,3.878,0,0,0-.558,1.26,5.954,5.954,0,0,0-.18,1.467,5.816,5.816,0,0,0,.207,1.593,3.734,3.734,0,0,0,.6,1.251,2.708,2.708,0,0,0,.99.81,3.1,3.1,0,0,0,1.368.288,2.955,2.955,0,0,0,1.449-.333,2.8,2.8,0,0,0,.981-.891,4,4,0,0,0,.558-1.26A5.847,5.847,0,0,0,113.256-4.662Zm1.836-3.762v-.9h1.386V-10.8a3.047,3.047,0,0,1,.45-1.764,1.73,1.73,0,0,1,1.53-.648q.252,0,.468.018t.432.054v.99a2.7,2.7,0,0,0-.648-.09,1.176,1.176,0,0,0-.648.153.9.9,0,0,0-.342.405,1.828,1.828,0,0,0-.135.567q-.027.315-.027.639v1.152h1.8v.9h-1.8V0h-1.08V-8.424Zm9.882,1.962a8.909,8.909,0,0,1,.387-2.664A6.406,6.406,0,0,1,126.5-11.3a5.435,5.435,0,0,1,1.872-1.467,5.841,5.841,0,0,1,2.574-.54,6.241,6.241,0,0,1,2.655.531,5.365,5.365,0,0,1,1.908,1.458,6.308,6.308,0,0,1,1.152,2.178,9,9,0,0,1,.387,2.673,8.758,8.758,0,0,1-.387,2.637,6.419,6.419,0,0,1-1.143,2.16A5.391,5.391,0,0,1,133.632-.2,6.047,6.047,0,0,1,131,.342a6.047,6.047,0,0,1-2.628-.54,5.391,5.391,0,0,1-1.89-1.467,6.3,6.3,0,0,1-1.134-2.16A8.951,8.951,0,0,1,124.974-6.462ZM131.022-.7a4.611,4.611,0,0,0,2.169-.477,4.327,4.327,0,0,0,1.494-1.269,5.4,5.4,0,0,0,.864-1.836,8.4,8.4,0,0,0,.279-2.178,8.144,8.144,0,0,0-.333-2.421,5.252,5.252,0,0,0-.963-1.827A4.132,4.132,0,0,0,133-11.862a4.954,4.954,0,0,0-2.016-.4,4.5,4.5,0,0,0-2.151.486,4.375,4.375,0,0,0-1.494,1.287,5.5,5.5,0,0,0-.864,1.845,8.4,8.4,0,0,0-.279,2.178,8.472,8.472,0,0,0,.279,2.2,5.4,5.4,0,0,0,.864,1.836,4.24,4.24,0,0,0,1.494,1.26A4.727,4.727,0,0,0,131.022-.7Zm9.072.7h-1.08V-9.324h1.08v1.746h.036a3.126,3.126,0,0,1,1.161-1.557,3.534,3.534,0,0,1,1.881-.441v1.17a3.152,3.152,0,0,0-1.512.288,2.486,2.486,0,0,0-.945.828,3.279,3.279,0,0,0-.486,1.233,7.947,7.947,0,0,0-.135,1.485Zm4.662,0V-9.324h1.08V0ZM144.7-11.358v-1.6h1.188v1.6ZM154.98-5.31a4.279,4.279,0,0,0-.189-1.287,3.008,3.008,0,0,0-.558-1.044,2.656,2.656,0,0,0-.927-.7,2.984,2.984,0,0,0-1.278-.261,2.841,2.841,0,0,0-1.269.27,2.918,2.918,0,0,0-.936.72A3.621,3.621,0,0,0,149.2-6.57a4.84,4.84,0,0,0-.306,1.26Zm-6.084.9a5.059,5.059,0,0,0,.2,1.431,3.457,3.457,0,0,0,.585,1.17,2.833,2.833,0,0,0,.981.792,3.02,3.02,0,0,0,1.368.3,2.976,2.976,0,0,0,1.818-.558,2.687,2.687,0,0,0,1.008-1.584h1.206a5.816,5.816,0,0,1-.522,1.233,3.8,3.8,0,0,1-.81.99,3.5,3.5,0,0,1-1.152.657,4.666,4.666,0,0,1-1.548.234A4.52,4.52,0,0,1,150.1-.126a3.632,3.632,0,0,1-1.332-1.035A4.367,4.367,0,0,1,148-2.709a7.018,7.018,0,0,1-.252-1.917,6.108,6.108,0,0,1,.3-1.926,4.9,4.9,0,0,1,.846-1.575,3.932,3.932,0,0,1,1.341-1.062,4.048,4.048,0,0,1,1.8-.387,3.717,3.717,0,0,1,3.024,1.323,5.812,5.812,0,0,1,1.08,3.843ZM158.958,0h-1.08V-9.324h1.08v1.3A6.859,6.859,0,0,1,160.3-9.144a3.085,3.085,0,0,1,1.665-.432,4.251,4.251,0,0,1,1.6.3,2.733,2.733,0,0,1,1.242,1.035,2.322,2.322,0,0,1,.4,1.035,9.4,9.4,0,0,1,.063,1.107V0H164.2V-6.084a2.778,2.778,0,0,0-.558-1.89,2.369,2.369,0,0,0-1.854-.63,2.631,2.631,0,0,0-.918.153,2.889,2.889,0,0,0-.747.405,2.713,2.713,0,0,0-.567.576,2.673,2.673,0,0,0-.36.684,3.433,3.433,0,0,0-.2.864q-.036.414-.036.9ZM170.8.036q-.2.036-.522.126a2.688,2.688,0,0,1-.72.09,1.716,1.716,0,0,1-1.233-.405A1.972,1.972,0,0,1,167.9-1.6V-8.424H166.59v-.9H167.9v-2.592h1.08v2.592h1.746v.9h-1.746v6.39q0,.342.018.594a1,1,0,0,0,.108.414.516.516,0,0,0,.279.234,1.547,1.547,0,0,0,.531.072,2.789,2.789,0,0,0,.441-.036q.225-.036.441-.09Zm7.47-4.932a5.3,5.3,0,0,1-1.386.378q-.7.09-1.4.144a3.957,3.957,0,0,0-1.935.558,1.6,1.6,0,0,0-.693,1.422,1.543,1.543,0,0,0,.171.747,1.578,1.578,0,0,0,.45.522,1.9,1.9,0,0,0,.648.306,2.871,2.871,0,0,0,.747.1,4.9,4.9,0,0,0,1.26-.162,3.407,3.407,0,0,0,1.089-.5,2.526,2.526,0,0,0,.765-.846,2.443,2.443,0,0,0,.288-1.215Zm-1.818-.54q.306-.036.729-.108a2.753,2.753,0,0,0,.693-.2.573.573,0,0,0,.333-.423,2.659,2.659,0,0,0,.063-.549,1.84,1.84,0,0,0-.531-1.359A2.477,2.477,0,0,0,175.95-8.6a4.962,4.962,0,0,0-1.026.1,2.233,2.233,0,0,0-.819.342,1.887,1.887,0,0,0-.576.648,2.75,2.75,0,0,0-.3,1.017h-1.1a3.336,3.336,0,0,1,.378-1.413,2.866,2.866,0,0,1,.837-.954,3.472,3.472,0,0,1,1.188-.54,5.809,5.809,0,0,1,1.431-.171,5.516,5.516,0,0,1,1.323.153,3.067,3.067,0,0,1,1.08.486,2.257,2.257,0,0,1,.72.891,3.216,3.216,0,0,1,.261,1.368V-1.6q0,.63.225.8t.909-.081v.846l-.369.108a1.674,1.674,0,0,1-.477.072,2.155,2.155,0,0,1-.486-.054.832.832,0,0,1-.432-.171,1.054,1.054,0,0,1-.261-.324,1.343,1.343,0,0,1-.135-.414,3.019,3.019,0,0,1-.036-.477,4.69,4.69,0,0,1-1.566,1.152,4.6,4.6,0,0,1-1.908.4A4.271,4.271,0,0,1,173.637.09a2.853,2.853,0,0,1-1-.5,2.5,2.5,0,0,1-.684-.837A2.57,2.57,0,0,1,171.7-2.43q0-2.376,3.258-2.808ZM181.98,0V-12.96h1.08V0Zm17.478-9.2a3.708,3.708,0,0,0-1.4-2.358,4.661,4.661,0,0,0-2.682-.7,4.1,4.1,0,0,0-2.016.468,4.075,4.075,0,0,0-1.4,1.26,5.561,5.561,0,0,0-.81,1.827,8.915,8.915,0,0,0-.261,2.187,10.052,10.052,0,0,0,.225,2.124,5.646,5.646,0,0,0,.747,1.863,3.967,3.967,0,0,0,1.4,1.323,4.412,4.412,0,0,0,2.214.5,4.085,4.085,0,0,0,1.512-.27,3.773,3.773,0,0,0,1.2-.747,4.353,4.353,0,0,0,.864-1.125,5.663,5.663,0,0,0,.531-1.422h1.278a8.084,8.084,0,0,1-.63,1.773,5.054,5.054,0,0,1-1.089,1.467,4.98,4.98,0,0,1-1.638,1,6.3,6.3,0,0,1-2.259.369,5.506,5.506,0,0,1-2.556-.549,4.853,4.853,0,0,1-1.737-1.485,6.232,6.232,0,0,1-.981-2.169,10.842,10.842,0,0,1-.306-2.619,9.489,9.489,0,0,1,.459-3.15,5.624,5.624,0,0,1,1.269-2.115,4.8,4.8,0,0,1,1.908-1.188A7.473,7.473,0,0,1,195.7-13.3a6.29,6.29,0,0,1,1.845.261,4.53,4.53,0,0,1,1.512.783,4.249,4.249,0,0,1,1.08,1.287,5.411,5.411,0,0,1,.585,1.773ZM209.484-5.31a4.279,4.279,0,0,0-.189-1.287,3.008,3.008,0,0,0-.558-1.044,2.656,2.656,0,0,0-.927-.7,2.984,2.984,0,0,0-1.278-.261,2.841,2.841,0,0,0-1.269.27,2.918,2.918,0,0,0-.936.72,3.621,3.621,0,0,0-.621,1.044,4.84,4.84,0,0,0-.306,1.26Zm-6.084.9a5.059,5.059,0,0,0,.2,1.431,3.457,3.457,0,0,0,.585,1.17,2.833,2.833,0,0,0,.981.792,3.02,3.02,0,0,0,1.368.3,2.976,2.976,0,0,0,1.818-.558,2.687,2.687,0,0,0,1.008-1.584h1.206a5.816,5.816,0,0,1-.522,1.233,3.8,3.8,0,0,1-.81.99,3.5,3.5,0,0,1-1.152.657,4.666,4.666,0,0,1-1.548.234,4.52,4.52,0,0,1-1.926-.378,3.632,3.632,0,0,1-1.332-1.035,4.367,4.367,0,0,1-.774-1.548,7.018,7.018,0,0,1-.252-1.917,6.108,6.108,0,0,1,.3-1.926,4.9,4.9,0,0,1,.846-1.575,3.932,3.932,0,0,1,1.341-1.062,4.048,4.048,0,0,1,1.8-.387,3.717,3.717,0,0,1,3.024,1.323,5.812,5.812,0,0,1,1.08,3.843ZM213.516,0h-1.08V-9.324h1.08v1.746h.036a3.126,3.126,0,0,1,1.161-1.557,3.534,3.534,0,0,1,1.881-.441v1.17a3.152,3.152,0,0,0-1.512.288,2.486,2.486,0,0,0-.945.828,3.279,3.279,0,0,0-.486,1.233,7.947,7.947,0,0,0-.135,1.485Zm10.6-4.9a5.3,5.3,0,0,1-1.386.378q-.7.09-1.4.144a3.957,3.957,0,0,0-1.935.558,1.6,1.6,0,0,0-.693,1.422,1.543,1.543,0,0,0,.171.747,1.578,1.578,0,0,0,.45.522,1.9,1.9,0,0,0,.648.306,2.871,2.871,0,0,0,.747.1,4.9,4.9,0,0,0,1.26-.162,3.407,3.407,0,0,0,1.089-.5,2.526,2.526,0,0,0,.765-.846,2.443,2.443,0,0,0,.288-1.215Zm-1.818-.54q.306-.036.729-.108a2.753,2.753,0,0,0,.693-.2.573.573,0,0,0,.333-.423,2.659,2.659,0,0,0,.063-.549,1.84,1.84,0,0,0-.531-1.359A2.477,2.477,0,0,0,221.8-8.6a4.962,4.962,0,0,0-1.026.1,2.233,2.233,0,0,0-.819.342,1.887,1.887,0,0,0-.576.648,2.75,2.75,0,0,0-.3,1.017h-1.1a3.336,3.336,0,0,1,.378-1.413,2.866,2.866,0,0,1,.837-.954,3.472,3.472,0,0,1,1.188-.54,5.809,5.809,0,0,1,1.431-.171,5.516,5.516,0,0,1,1.323.153,3.067,3.067,0,0,1,1.08.486,2.257,2.257,0,0,1,.72.891,3.216,3.216,0,0,1,.261,1.368V-1.6q0,.63.225.8t.909-.081v.846l-.369.108a1.674,1.674,0,0,1-.477.072A2.155,2.155,0,0,1,225,.09a.832.832,0,0,1-.432-.171,1.054,1.054,0,0,1-.261-.324,1.343,1.343,0,0,1-.135-.414,3.019,3.019,0,0,1-.036-.477A4.69,4.69,0,0,1,222.57-.144a4.6,4.6,0,0,1-1.908.4A4.271,4.271,0,0,1,219.483.09a2.853,2.853,0,0,1-1-.5,2.5,2.5,0,0,1-.684-.837,2.57,2.57,0,0,1-.252-1.179q0-2.376,3.258-2.808ZM228.6,0h-1.08V-9.324h1.08v1.4h.036a2.843,2.843,0,0,1,1.188-1.233,3.471,3.471,0,0,1,1.692-.423,3.636,3.636,0,0,1,1.1.144,2.476,2.476,0,0,1,.765.387,2.228,2.228,0,0,1,.522.567,3.835,3.835,0,0,1,.351.7A3.14,3.14,0,0,1,235.5-9.135a3.586,3.586,0,0,1,1.791-.441,3.135,3.135,0,0,1,1.521.315,2.279,2.279,0,0,1,.873.828,3.193,3.193,0,0,1,.405,1.179,9.294,9.294,0,0,1,.1,1.368V0h-1.08V-6.444a2.627,2.627,0,0,0-.423-1.584,1.842,1.842,0,0,0-1.575-.576,2.632,2.632,0,0,0-1.143.261,2.643,2.643,0,0,0-.963.8,2.083,2.083,0,0,0-.3.549,4.612,4.612,0,0,0-.189.657,5.366,5.366,0,0,0-.1.684q-.027.342-.027.63V0h-1.08V-6.444a2.627,2.627,0,0,0-.423-1.584,1.842,1.842,0,0,0-1.575-.576,2.632,2.632,0,0,0-1.143.261,2.643,2.643,0,0,0-.963.8,2.083,2.083,0,0,0-.3.549,4.612,4.612,0,0,0-.189.657,5.366,5.366,0,0,0-.1.684q-.027.342-.027.63Zm13.86,0V-9.324h1.08V0Zm-.054-11.358v-1.6h1.188v1.6ZM252.54-6.39a3.136,3.136,0,0,0-.99-1.629,2.689,2.689,0,0,0-1.782-.585,2.8,2.8,0,0,0-1.422.342,2.878,2.878,0,0,0-.972.909,4.1,4.1,0,0,0-.558,1.278,5.81,5.81,0,0,0-.18,1.431,6.063,6.063,0,0,0,.171,1.44,3.849,3.849,0,0,0,.549,1.26,2.827,2.827,0,0,0,.972.891,2.9,2.9,0,0,0,1.44.333,2.757,2.757,0,0,0,1.935-.666,3.1,3.1,0,0,0,.927-1.836h1.152a5.422,5.422,0,0,1-.459,1.413,3.729,3.729,0,0,1-.81,1.1A3.481,3.481,0,0,1,251.334,0a4.513,4.513,0,0,1-1.566.252,4.52,4.52,0,0,1-1.926-.378,3.632,3.632,0,0,1-1.332-1.035,4.36,4.36,0,0,1-.774-1.557,7.115,7.115,0,0,1-.252-1.926,6.2,6.2,0,0,1,.279-1.863,4.857,4.857,0,0,1,.819-1.575,3.962,3.962,0,0,1,1.341-1.089,4.035,4.035,0,0,1,1.845-.4,4.158,4.158,0,0,1,2.619.774,3.593,3.593,0,0,1,1.251,2.412Zm3.672,3.474a2.741,2.741,0,0,0,.909,1.7A3.08,3.08,0,0,0,259-.72a3.256,3.256,0,0,0,1.026-.144,2.061,2.061,0,0,0,.711-.387,1.669,1.669,0,0,0,.423-.549,1.5,1.5,0,0,0,.144-.648,1.193,1.193,0,0,0-.441-1.017,3.328,3.328,0,0,0-1.107-.522,14.255,14.255,0,0,0-1.44-.324,7.044,7.044,0,0,1-1.44-.405,2.884,2.884,0,0,1-1.107-.774,2.091,2.091,0,0,1-.441-1.422,2.43,2.43,0,0,1,.855-1.917,3.565,3.565,0,0,1,2.421-.747,4.132,4.132,0,0,1,2.457.675,3.087,3.087,0,0,1,1.143,2.259h-1.1a2.019,2.019,0,0,0-.819-1.521,3.05,3.05,0,0,0-1.7-.441,2.423,2.423,0,0,0-1.566.441A1.426,1.426,0,0,0,256.482-7a1.133,1.133,0,0,0,.441.963,3.593,3.593,0,0,0,1.107.54q.666.207,1.44.369a7.093,7.093,0,0,1,1.44.459,3.152,3.152,0,0,1,1.107.8,2.062,2.062,0,0,1,.441,1.4,2.367,2.367,0,0,1-.288,1.179,2.507,2.507,0,0,1-.792.855,3.684,3.684,0,0,1-1.2.513,6.345,6.345,0,0,1-1.521.171,4.109,4.109,0,0,1-1.467-.243A3.185,3.185,0,0,1,256.1-.666a3.113,3.113,0,0,1-.7-1.008,3.55,3.55,0,0,1-.288-1.242ZM266.076.54a2.019,2.019,0,0,1-.369,1.269,1.875,1.875,0,0,1-.945.657V1.8a1.819,1.819,0,0,0,.414-.4,1.281,1.281,0,0,0,.2-.792V0h-.612V-1.584h1.314Zm7.092-7a8.909,8.909,0,0,1,.387-2.664A6.406,6.406,0,0,1,274.7-11.3a5.435,5.435,0,0,1,1.872-1.467,5.841,5.841,0,0,1,2.574-.54,6.241,6.241,0,0,1,2.655.531,5.366,5.366,0,0,1,1.908,1.458,6.308,6.308,0,0,1,1.152,2.178,9,9,0,0,1,.387,2.673,8.757,8.757,0,0,1-.387,2.637,6.419,6.419,0,0,1-1.143,2.16A5.391,5.391,0,0,1,281.826-.2a6.047,6.047,0,0,1-2.628.54A6.048,6.048,0,0,1,276.57-.2a5.391,5.391,0,0,1-1.89-1.467,6.3,6.3,0,0,1-1.134-2.16A8.952,8.952,0,0,1,273.168-6.462ZM279.216-.7a4.611,4.611,0,0,0,2.169-.477,4.327,4.327,0,0,0,1.494-1.269,5.4,5.4,0,0,0,.864-1.836,8.4,8.4,0,0,0,.279-2.178,8.144,8.144,0,0,0-.333-2.421,5.252,5.252,0,0,0-.963-1.827,4.132,4.132,0,0,0-1.53-1.152,4.954,4.954,0,0,0-2.016-.4,4.5,4.5,0,0,0-2.151.486,4.375,4.375,0,0,0-1.494,1.287,5.5,5.5,0,0,0-.864,1.845,8.4,8.4,0,0,0-.279,2.178,8.471,8.471,0,0,0,.279,2.2,5.4,5.4,0,0,0,.864,1.836,4.24,4.24,0,0,0,1.494,1.26A4.727,4.727,0,0,0,279.216-.7Zm8.568-2.214a2.741,2.741,0,0,0,.909,1.7,3.08,3.08,0,0,0,1.881.5A3.256,3.256,0,0,0,291.6-.864a2.061,2.061,0,0,0,.711-.387,1.669,1.669,0,0,0,.423-.549,1.5,1.5,0,0,0,.144-.648,1.193,1.193,0,0,0-.441-1.017,3.328,3.328,0,0,0-1.107-.522,14.255,14.255,0,0,0-1.44-.324,7.044,7.044,0,0,1-1.44-.405,2.884,2.884,0,0,1-1.107-.774,2.091,2.091,0,0,1-.441-1.422,2.43,2.43,0,0,1,.855-1.917,3.565,3.565,0,0,1,2.421-.747,4.132,4.132,0,0,1,2.457.675,3.087,3.087,0,0,1,1.143,2.259h-1.1a2.019,2.019,0,0,0-.819-1.521,3.05,3.05,0,0,0-1.7-.441,2.423,2.423,0,0,0-1.566.441A1.426,1.426,0,0,0,288.054-7a1.133,1.133,0,0,0,.441.963,3.594,3.594,0,0,0,1.107.54q.666.207,1.44.369a7.092,7.092,0,0,1,1.44.459,3.152,3.152,0,0,1,1.107.8,2.062,2.062,0,0,1,.441,1.4,2.367,2.367,0,0,1-.288,1.179,2.507,2.507,0,0,1-.792.855,3.684,3.684,0,0,1-1.2.513,6.345,6.345,0,0,1-1.521.171,4.109,4.109,0,0,1-1.467-.243,3.185,3.185,0,0,1-1.089-.675,3.113,3.113,0,0,1-.7-1.008,3.551,3.551,0,0,1-.288-1.242ZM301.9-4.9a5.3,5.3,0,0,1-1.386.378q-.7.09-1.4.144a3.958,3.958,0,0,0-1.935.558,1.6,1.6,0,0,0-.693,1.422,1.544,1.544,0,0,0,.171.747,1.578,1.578,0,0,0,.45.522,1.9,1.9,0,0,0,.648.306,2.871,2.871,0,0,0,.747.1,4.9,4.9,0,0,0,1.26-.162,3.407,3.407,0,0,0,1.089-.5,2.526,2.526,0,0,0,.765-.846,2.443,2.443,0,0,0,.288-1.215Zm-1.818-.54q.306-.036.729-.108a2.753,2.753,0,0,0,.693-.2.573.573,0,0,0,.333-.423,2.657,2.657,0,0,0,.063-.549,1.84,1.84,0,0,0-.531-1.359,2.477,2.477,0,0,0-1.791-.531,4.962,4.962,0,0,0-1.026.1,2.234,2.234,0,0,0-.819.342,1.887,1.887,0,0,0-.576.648,2.751,2.751,0,0,0-.3,1.017h-1.1a3.335,3.335,0,0,1,.378-1.413,2.865,2.865,0,0,1,.837-.954,3.472,3.472,0,0,1,1.188-.54,5.809,5.809,0,0,1,1.431-.171,5.516,5.516,0,0,1,1.323.153,3.067,3.067,0,0,1,1.08.486,2.257,2.257,0,0,1,.72.891,3.217,3.217,0,0,1,.261,1.368V-1.6q0,.63.225.8t.909-.081v.846l-.369.108a1.674,1.674,0,0,1-.477.072,2.155,2.155,0,0,1-.486-.054.832.832,0,0,1-.432-.171,1.054,1.054,0,0,1-.261-.324,1.343,1.343,0,0,1-.135-.414,3.017,3.017,0,0,1-.036-.477,4.69,4.69,0,0,1-1.566,1.152,4.6,4.6,0,0,1-1.908.4A4.27,4.27,0,0,1,297.261.09a2.853,2.853,0,0,1-1-.5,2.5,2.5,0,0,1-.684-.837,2.57,2.57,0,0,1-.252-1.179q0-2.376,3.258-2.808ZM305.37,0V-12.96h1.08V-4.9l4.572-4.428H312.5l-3.492,3.366L312.912,0h-1.206l-3.492-5.2L306.45-3.528V0Zm14.814-4.9a5.3,5.3,0,0,1-1.386.378q-.7.09-1.4.144a3.958,3.958,0,0,0-1.935.558,1.6,1.6,0,0,0-.693,1.422,1.544,1.544,0,0,0,.171.747,1.578,1.578,0,0,0,.45.522,1.9,1.9,0,0,0,.648.306,2.871,2.871,0,0,0,.747.1,4.9,4.9,0,0,0,1.26-.162,3.407,3.407,0,0,0,1.089-.5,2.526,2.526,0,0,0,.765-.846,2.443,2.443,0,0,0,.288-1.215Zm-1.818-.54q.306-.036.729-.108a2.753,2.753,0,0,0,.693-.2.573.573,0,0,0,.333-.423,2.657,2.657,0,0,0,.063-.549,1.84,1.84,0,0,0-.531-1.359,2.477,2.477,0,0,0-1.791-.531,4.962,4.962,0,0,0-1.026.1,2.234,2.234,0,0,0-.819.342,1.887,1.887,0,0,0-.576.648,2.751,2.751,0,0,0-.3,1.017h-1.1a3.335,3.335,0,0,1,.378-1.413,2.865,2.865,0,0,1,.837-.954,3.472,3.472,0,0,1,1.188-.54,5.809,5.809,0,0,1,1.431-.171,5.516,5.516,0,0,1,1.323.153,3.067,3.067,0,0,1,1.08.486,2.257,2.257,0,0,1,.72.891,3.217,3.217,0,0,1,.261,1.368V-1.6q0,.63.225.8t.909-.081v.846l-.369.108a1.674,1.674,0,0,1-.477.072,2.155,2.155,0,0,1-.486-.054.832.832,0,0,1-.432-.171,1.054,1.054,0,0,1-.261-.324,1.343,1.343,0,0,1-.135-.414A3.017,3.017,0,0,1,320.2-1.3a4.69,4.69,0,0,1-1.566,1.152,4.6,4.6,0,0,1-1.908.4A4.27,4.27,0,0,1,315.549.09a2.853,2.853,0,0,1-1-.5,2.5,2.5,0,0,1-.684-.837,2.57,2.57,0,0,1-.252-1.179q0-2.376,3.258-2.808Z" transform="translate(45 68)" fill="#070303"/>
    <path id="パス_485" data-name="パス 485" d="M26.236-13.664v-1.344H14.308A59.4,59.4,0,0,0,14.84-23.3h-1.4a56.036,56.036,0,0,1-.532,8.288H1.876v1.344H12.684C11.508-8.092,8.652-2.156,1.372.952A4.15,4.15,0,0,1,2.38,2.044C9.828-1.288,12.8-7.448,13.972-13.272c2.156,7.028,6.02,12.6,11.648,15.288A6.229,6.229,0,0,1,26.628.756c-5.488-2.38-9.352-7.812-11.368-14.42Zm12.488-8.512-.224.056H32.06V2.044h1.26v-22.9h4.62c-.7,1.932-1.68,4.452-2.66,6.664,2.24,2.352,2.856,4.34,2.856,5.992,0,.868-.168,1.764-.644,2.072a1.912,1.912,0,0,1-.952.28c-.476.028-1.12,0-1.848-.028a3.033,3.033,0,0,1,.392,1.2,11.13,11.13,0,0,0,1.932,0,3.178,3.178,0,0,0,1.344-.448,3.643,3.643,0,0,0,1.036-3c0-1.82-.588-3.836-2.8-6.244,1.008-2.24,2.156-5.012,3-7.252Zm14.812,9.3A20.541,20.541,0,0,1,49.5-4.34a25.25,25.25,0,0,1-4.284-8.54Zm.672-1.316-.252.056H43.148v-6.244H55.916v-1.26H41.86v7.952c0,4.536-.336,10.556-3.724,14.924a4.919,4.919,0,0,1,1.036.812c3.3-4.228,3.92-10.332,3.976-14.924h.84a26.994,26.994,0,0,0,4.648,9.52A17.462,17.462,0,0,1,42.084.952a4.96,4.96,0,0,1,.84,1.092,19.134,19.134,0,0,0,6.58-4.4,17.7,17.7,0,0,0,6.02,4.4,5.051,5.051,0,0,1,.924-1.12,16.5,16.5,0,0,1-6.076-4.256,23,23,0,0,0,4.7-10.584ZM85.68-17.948v-1.316H73.864v-4.2H72.492v4.2H60.844v1.316H72.492v4.34H63.84v12.1h1.316v-10.78h7.336V2.128h1.372v-14.42h7.728v8.736c0,.42-.112.56-.644.588S78.736-2.94,76.524-3a6.566,6.566,0,0,1,.5,1.344,22.279,22.279,0,0,0,4.9-.252c.784-.252,1.008-.7,1.008-1.652V-13.608H73.864v-4.34Zm28.84.5H103.488v-5.88h-1.372v5.88H91.448v1.316H114.52ZM99.372-2.548a42.66,42.66,0,0,0-2.828-11.9l-1.232.308A42.907,42.907,0,0,1,98-2.268ZM106.2-.588c1.456-3.724,3.108-9.464,4.256-13.776l-1.484-.308A107.566,107.566,0,0,1,104.8-.588H90.5V.728H115.3V-.588ZM124.32-10.836h7.448V-7.56H124.32Zm0-4.368h7.448v3.248H124.32Zm16.716,0v3.248h-7.9V-15.2Zm0,7.644h-7.9v-3.276h7.9Zm1.344,1.176v-10h-9.24v-2.8h11.508v-1.288H133.14V-23.3h-1.372v2.828H120.484v1.288h11.284v2.8H123v10h7.448A28.559,28.559,0,0,1,119.868.42a4.457,4.457,0,0,1,.952,1.092,29.961,29.961,0,0,0,10.948-7.56V2.016h1.372V-6.076a30.22,30.22,0,0,0,11.088,7.644,4.7,4.7,0,0,1,.98-1.12,27.809,27.809,0,0,1-10.752-6.832Zm21.028-12.348a19.318,19.318,0,0,0-2.744-4.564l-1.176.476a21.306,21.306,0,0,1,2.688,4.732Zm-8.12,6.132a23.294,23.294,0,0,0-5.152-2.912l-.756.98a24.3,24.3,0,0,1,5.152,3.052ZM151.4,1.624a99.878,99.878,0,0,0,4.816-9.156l-.98-.84a87.644,87.644,0,0,1-4.984,9.1Zm-.588-23.688a20.986,20.986,0,0,1,5.012,3.276l.784-1.12a21.3,21.3,0,0,0-5.04-3.108Zm24,16.044h-8.288v-4.788h6.776V-12.1h-6.776v-4.676h7.532V-18.06H169.12a43.181,43.181,0,0,0,2.912-4.788l-1.4-.5a31.838,31.838,0,0,1-2.716,4.872l.952.42H157.836v1.288h7.308V-12.1h-6.5v1.288h6.5V-6.02h-8.092v1.288h8.092V2.044h1.372V-4.732H174.8ZM186.844-22.2l-.252.056h-6.356V2.016h1.26v-22.9h4.536c-.7,1.9-1.652,4.452-2.66,6.664,2.268,2.352,2.884,4.284,2.884,5.908,0,.9-.168,1.792-.644,2.072a1.918,1.918,0,0,1-.952.308,10.7,10.7,0,0,1-1.848-.056,3.755,3.755,0,0,1,.364,1.26,14.684,14.684,0,0,0,1.932-.028,3.319,3.319,0,0,0,1.372-.476A3.664,3.664,0,0,0,187.488-8.2c0-1.792-.56-3.808-2.772-6.188,1.008-2.268,2.128-5.012,3-7.252ZM198.24-3V-1.68h1.148V-7.952H198.24v3.836h-3.22V-9.24h5.488v-1.148H195.02v-3.3h4.732v-1.12h-7.588c.42-.84.756-1.68,1.064-2.464L192-17.416a15.885,15.885,0,0,1-3.248,5.6,3.5,3.5,0,0,1,.952.7,16.126,16.126,0,0,0,1.848-2.576h2.268v3.3H188.58V-9.24h5.236v5.124h-3.388V-7.952h-1.12V-.98h1.12V-3Zm5.628-16.436H190.876a31.233,31.233,0,0,0,1.512-3.584l-1.26-.308a23.76,23.76,0,0,1-4.928,8.708,7.608,7.608,0,0,1,1.036.756,24.4,24.4,0,0,0,3.024-4.368h12.32C202.356-5.068,202.02-.5,201.292.448a1.153,1.153,0,0,1-1.036.42c-.588,0-2.044-.028-3.64-.168a3.078,3.078,0,0,1,.364,1.26c1.4.084,2.856.112,3.668.084a2.03,2.03,0,0,0,1.792-.924c.952-1.232,1.148-5.656,1.428-19.74Zm13.86,1.008v1.232h16.436v-1.232H229.4c.728-1.176,1.54-2.94,2.24-4.4l-1.372-.448a26.874,26.874,0,0,1-2.016,4.592l.616.252H222.6l.84-.364a16.745,16.745,0,0,0-2.268-4.452l-1.092.448a15.8,15.8,0,0,1,2.156,4.368ZM216.1-2.548h-4v-9.3h4Zm1.2,1.232v-11.76h-5.18a60.853,60.853,0,0,0,1.4-6.944h4.536v-1.26H208.74v1.26h3.472c-.672,4.984-1.82,9.688-3.808,12.8.28.252.756.784.952,1.008a20.088,20.088,0,0,0,1.54-3.108V.952h1.2V-1.316Zm5.516-3.36a34.84,34.84,0,0,1,1.316,3.64c-1.6.2-3.164.364-4.564.532a122.186,122.186,0,0,0,5.88-11.452l-1.232-.448c-.616,1.54-1.428,3.388-2.3,5.208a23.645,23.645,0,0,0-2.1-2.828,64.883,64.883,0,0,0,2.912-6.412l-1.288-.364a41.6,41.6,0,0,1-2.408,5.908c-.224-.224-.42-.448-.644-.672l-.728.924a27.233,27.233,0,0,1,3.612,4.732,55.166,55.166,0,0,1-3.108,5.572c-.5.056-.98.112-1.4.14l.252,1.288c2.1-.252,4.732-.588,7.42-.98a11.732,11.732,0,0,1,.308,1.484L225.9,1.12a28.493,28.493,0,0,0-2.044-6.188ZM234.444,1.4a24.81,24.81,0,0,0-2.6-6.608L230.8-4.76a32.49,32.49,0,0,1,1.68,3.752c-1.848.252-3.584.448-5.1.644A114.69,114.69,0,0,0,233.352-11.9l-1.232-.42c-.616,1.568-1.484,3.472-2.38,5.348a22.306,22.306,0,0,0-2.072-2.8,66.5,66.5,0,0,0,2.94-6.636L229.32-16.8a44.3,44.3,0,0,1-2.436,6.132l-.588-.588-.728.9a22.952,22.952,0,0,1,3.5,4.7A61.722,61.722,0,0,1,226.016-.2l-.336.028.336,1.26c1.932-.252,4.4-.616,6.86-.924.2.616.336,1.2.448,1.708Zm29.092-6.776v-1.26h-12.46a23.741,23.741,0,0,0,.56-3.108h11.62V-11h-11.62v-2.884h9.212v-1.2h-9.212v-2.8h10.528v-1.26h-6.748a31.666,31.666,0,0,0,2.912-3.668l-1.316-.532a27.388,27.388,0,0,1-2.744,3.752l.98.448h-8.932l1.008-.5a13.272,13.272,0,0,0-2.66-3.7l-1.148.5a12.773,12.773,0,0,1,2.52,3.7h-6.188v1.26h10.416v2.8H241.3v1.2h8.96V-11H238.728v1.26h11.536a23.606,23.606,0,0,1-.588,3.108H238.532v1.26h10.7c-1.4,3.22-4.312,5.208-11,6.216a6,6,0,0,1,.728,1.2c7.2-1.176,10.276-3.556,11.7-7.42h.532c1.848,4.424,5.8,6.608,11.788,7.448a4.229,4.229,0,0,1,.868-1.26c-5.712-.588-9.492-2.464-11.256-6.188Zm29.372-16.212h-6.664v1.26h6.664Zm-7.252,2.744a16.225,16.225,0,0,0-2.716-3.836l-.924.532a17.864,17.864,0,0,1,2.66,3.892ZM272.8-23.324a20.135,20.135,0,0,1-5.152,5.8,7.05,7.05,0,0,1,.84.98,26.022,26.022,0,0,0,5.6-6.3Zm.924,5.46A25.025,25.025,0,0,1,267.2-9.632a7.687,7.687,0,0,1,.9,1.092,26.833,26.833,0,0,0,2.94-2.968V2.072h1.26V-13.1a29.11,29.11,0,0,0,2.66-4.34Zm2.324,5.908c-.252,3.78-.756,7.392-2.044,9.8a6.613,6.613,0,0,1,1.092.644c1.26-2.548,1.876-6.244,2.184-10.3Zm9.464-3.836v-1.26h-4.648v-5.88H279.58v5.88h-4.508v1.26h4.508V1.624h1.288V-15.792Zm-2.8,4.088a48.106,48.106,0,0,1,1.68,8.316l1.176-.224a45.539,45.539,0,0,0-1.708-8.288ZM293.3-14.028h-7.7v1.26h3.7V.252c0,.364-.112.476-.56.5-.392,0-1.764,0-3.388-.056a7.329,7.329,0,0,1,.42,1.344,16.073,16.073,0,0,0,3.92-.224c.672-.252.9-.672.9-1.568v-13.02H293.3Zm15.512-4.228a27.762,27.762,0,0,0-4.62-5.068h-1.428a20.92,20.92,0,0,1-5.852,7.448,3.705,3.705,0,0,1,.924.812,25.187,25.187,0,0,0,5.824-7.084,26.528,26.528,0,0,1,4.2,4.844Zm-2.38,3.276v2.688h-5.656V-14.98Zm-5.656,6.5v-2.744h5.656v2.744Zm3.332,3.136a23.132,23.132,0,0,1,1.848,2.632c-1.792.476-3.556.952-5.18,1.372v-6.02h6.916V-16.1h-3.3v-2.828h-1.2V-16.1h-3.64V-1.036c-.756.2-1.456.336-2.072.476l.5,1.316c2.38-.644,5.544-1.568,8.6-2.436A16.879,16.879,0,0,1,307.776.9l1.148-.588A24.134,24.134,0,0,0,305.2-5.908Zm16.6,0v4.62H312.2v-4.62Zm-1.148-9.324v4.2H312.2v-4.2Zm-7.364,5.4h8.624v-6.608h-9.912V2.016H312.2V.5h8.512V1.792H322V-6.552h-9.8Zm4.2-10.976v-3.108h-1.316v3.108h-5.908v4.424h1.232v-3.22h11v3.22H322.7v-4.424Z" transform="translate(44 42)" fill="#070303"/>
  </g>
</svg>
