<svg width="1162" height="1174" viewBox="0 0 1162 1174" fill="none" xmlns="http://www.w3.org/2000/svg">
<path fill-rule="evenodd" clip-rule="evenodd" d="M910.777 1.17042C910.537 1.89042 910.939 4.46842 911.67 6.89942C913.461 12.8504 913.345 18.0624 911.359 20.8984L909.717 23.2424L882.437 22.8294L855.157 22.4154L858.211 25.8934L861.265 29.3714L885.943 29.1054C913.9 28.8034 912.675 28.4604 913.67 36.8634C914.13 40.7484 913.864 42.5584 912.535 44.5884L910.798 47.2384L888.982 46.8324L867.167 46.4264L869.037 49.0524C872.423 53.8074 872.468 53.8154 890.156 52.7784C912.13 51.4894 912.389 51.5974 912.79 62.1494C913.201 72.9534 913.109 73.0144 896.679 72.9414C889.43 72.9094 877.2 72.5174 869.5 72.0714C861.8 71.6244 855.298 71.4414 855.05 71.6634C854.803 71.8854 856.153 73.5284 858.05 75.3144L861.5 78.5624L929.5 78.0314L997.5 77.5004L997.8 75.3964C998.013 73.9094 996.451 71.7854 992.468 68.1454C984.496 60.8594 982.912 60.6774 977.12 66.3824C974.529 68.9344 970.857 71.4674 968.961 72.0114C967.065 72.5554 958.284 73.0004 949.448 73.0004C929.749 73.0004 929.711 72.9824 929.247 63.3594C929.065 59.5874 929.368 55.8254 929.92 55.0004C930.75 53.7594 935.148 53.4144 955.412 53.0004C971.826 52.6654 980.278 52.1234 981.044 51.3574C981.9 50.5004 981.751 49.5494 980.444 47.5554C978.343 44.3494 968.322 37.0004 966.051 37.0004C965.158 37.0004 962.747 39.2504 960.694 42.0004L956.961 47.0004H944.103C929.411 47.0004 929.252 46.9214 928.33 39.1374C927.884 35.3734 928.143 33.4314 929.332 31.6164L930.935 29.1704L957.919 28.8354C976.503 28.6044 985.26 28.1424 986.051 27.3514C987.847 25.5534 986.397 22.7494 980.783 17.1644C974.058 10.4754 972.151 9.87042 969.525 13.5964C968.411 15.1764 966.082 17.9394 964.35 19.7354L961.2 23.0004H946.755C934.031 23.0004 932.113 22.7824 930.655 21.1714C928.06 18.3044 928.662 14.9314 932.462 11.0394C934.61 8.83942 935.633 7.02542 935.159 6.25642C934.408 5.04142 923.519 1.90242 915.357 0.54842C912.341 0.0474198 911.094 0.217418 910.777 1.17042ZM813.863 8.53342C817.15 11.5764 822.463 17.5394 825.67 21.7834C828.876 26.0274 832.175 30.0684 833 30.7624C835.211 32.6234 840.151 31.3994 842.857 28.3204C846.994 23.6154 844.719 15.9394 837.574 10.4894C832.325 6.48542 821.557 3.04642 814.193 3.02142L807.886 3.00042L813.863 8.53342ZM798.143 55.7504C801.702 59.4634 806.765 65.5374 809.395 69.2504C814.487 76.4394 815.951 77.1114 820.928 74.5374C824.137 72.8784 825.002 71.2054 824.996 66.6684C824.991 61.8244 821.688 57.3824 815.917 54.4584C810.679 51.8044 799.879 49.0494 794.586 49.0174C791.723 49.0004 791.785 49.1174 798.143 55.7504ZM843.891 60.7504C843.309 62.2634 840.453 69.8004 837.545 77.5004C829.603 98.5284 815.252 130.238 811.761 134.473L808.678 138.214L799.339 137.514C794.203 137.128 790 137.076 790 137.397C790 137.718 793.006 139.343 796.681 141.009C811.467 147.714 813.042 150.307 814.102 169.682C814.972 185.58 816.194 189.394 820.707 190.283C825.305 191.19 828.825 189.964 831.999 186.349C836.097 181.681 835.933 177.854 830.87 160.044C827.146 146.943 826.798 144.78 827.327 138.009C827.938 130.177 831.236 116.54 837.849 94.5004C842.563 78.7904 847.129 58.0004 845.866 58.0004C845.362 58.0004 844.474 59.2374 843.891 60.7504ZM871.434 98.6164C873.092 126.591 872.64 162.197 870.393 180.634C869.858 185.025 870.074 186.074 871.884 187.884C875.163 191.163 881.37 190.783 885.077 187.077C886.685 185.469 888.019 183.332 888.042 182.327C888.064 181.322 888.177 174.889 888.292 168.031C888.495 155.836 888.555 155.534 891 154.269C894.576 152.419 958.971 152.898 961.251 154.792C963.307 156.5 964.534 168.485 963.051 172.375L961.954 175.25L950.477 174.811C944.165 174.569 939 174.701 939 175.104C939 175.507 940.611 176.833 942.581 178.05C944.55 179.267 947.975 182.566 950.192 185.381C955.251 191.806 956.268 192.373 961.302 191.568C968.359 190.439 974.683 186.287 977.171 181.148L979.374 176.595L978.162 144.048L976.949 111.5L980.475 108.5C982.414 106.85 983.985 104.6 983.967 103.5C983.935 101.606 972.514 91.9024 968.506 90.3644C967.404 89.9414 965.543 91.0164 962.88 93.6164L958.901 97.5004H924.7H890.5L884 94.2714C880.425 92.4954 876.017 90.7474 874.204 90.3874L870.908 89.7324L871.434 98.6164ZM960.484 104.365C963.275 106.405 963.331 118.553 960.559 120.58C957.94 122.496 891.102 122.702 889.2 120.8C888.487 120.087 888 116.655 888 112.35C888 106.5 888.338 104.903 889.75 104.08C890.841 103.444 904.131 103.049 925.059 103.03C951.872 103.006 958.993 103.274 960.484 104.365ZM961.597 130.507C963.511 133.429 963.196 144.204 961.135 146.265C960.202 147.198 951.335 147.5 924.869 147.5C884.476 147.5 887 148.157 887 137.638C887 127.436 884.768 128 925.132 128H959.954L961.597 130.507ZM554.372 186.444C549.852 191.099 547.148 193.069 544.628 193.542C539.763 194.455 421.897 193.541 419.75 192.574C417.22 191.435 417.648 193.05 420.791 196.5L423.524 199.5L502.587 199.167C546.071 198.984 582.279 198.446 583.048 197.97C584.183 197.269 583.979 196.595 581.974 194.409C578.266 190.367 564.058 180 562.228 180C561.348 180 557.813 182.9 554.372 186.444ZM540.232 263.25L533.983 269.5L506.612 269.821C491.557 269.997 469.175 269.695 456.874 269.15C444.573 268.605 434.304 268.363 434.054 268.613C433.804 268.862 435.153 270.514 437.05 272.283L440.5 275.5L504.417 275C555.103 274.603 568.422 274.235 568.76 273.22C568.995 272.516 567.457 270.342 565.343 268.389C561.462 264.803 549.191 257 547.432 257C546.908 257 543.668 259.813 540.232 263.25ZM888.63 328.107C889.585 340.648 889.416 467.509 888.43 478.167C887.856 484.371 887.608 484.92 884.853 486.061C882.852 486.89 878.832 487.105 872.455 486.724C867.265 486.415 862.779 486.549 862.486 487.023C862.192 487.498 864.101 488.835 866.726 489.996C872.63 492.607 876.236 495.98 878.506 501.014C880.676 505.826 882.007 506.348 888.611 504.977C895.073 503.635 899.737 500.608 902.446 495.997C904.468 492.554 904.501 491.291 904.595 414.934C904.648 372.273 905.016 336.048 905.413 334.434C905.81 332.82 907.792 329.782 909.817 327.683C913.405 323.965 913.449 323.829 911.517 322.403C908.792 320.391 901.158 318.23 893.858 317.404L887.763 316.715L888.63 328.107ZM577.242 336.66C575.184 338.793 572.049 342.248 570.275 344.337L567.051 348.135L485.275 347.738C440.299 347.519 402.488 346.986 401.25 346.553C398.129 345.462 398.263 347.959 401.487 350.988L403.975 353.325L503.237 353.095C563.093 352.957 602.878 352.495 603.451 351.931C604.699 350.707 598.352 344.182 590.308 338.418C581.647 332.213 581.545 332.199 577.242 336.66ZM134.526 351.305C134.323 351.962 133.695 355.854 133.13 359.953C131.846 369.272 126.376 380.849 121.498 384.57L118.09 387.169L65.6482 386.834L13.2062 386.5L15.9022 389.86L18.5982 393.22L57.6352 393.059C93.1792 392.913 96.7962 393.05 98.0732 394.588C99.8632 396.745 100.539 409.539 99.0652 413.366L97.9612 416.232L64.5972 415.846L31.2332 415.459L34.0622 418.892L36.8922 422.324L66.8022 422.09C102.085 421.813 100 421.157 100 432.548C100 444.094 103.194 443.413 52.1942 442.737C28.7122 442.426 8.7122 441.86 7.7502 441.479C5.1232 440.439 5.6172 442.574 8.7502 445.799L11.5002 448.629L108.317 448.222C195.421 447.856 205.195 447.657 205.74 446.234C206.531 444.174 201.694 440.111 192.154 434.825L184.807 430.753L178.874 436.627L172.94 442.5L146.042 442.822C119.945 443.134 119.082 443.082 117.072 441.072C114.437 438.437 114.109 427.717 116.557 424.223C118.09 422.033 118.462 422 141.807 421.989C167.278 421.977 172.869 421.505 173.717 419.295C174.579 417.05 169.257 412.326 161.278 408.254L153.924 404.5L148.645 410.145L143.367 415.79L134.704 416.512C122.72 417.51 117.171 416.579 115.949 413.366C114.399 409.288 114.785 397.752 116.557 395.223L118.113 393H158.934C195.455 393 199.898 392.828 201.109 391.369C202.289 389.947 201.977 389.319 198.672 386.462C196.587 384.66 191.766 381.548 187.959 379.548C180.056 375.395 179.761 375.45 173.304 382.267C169.222 386.577 168.899 386.715 161.403 387.349C147.724 388.505 129.571 388.138 127.556 386.664C125.869 385.431 126.169 384.992 131.483 380.914C134.648 378.486 139.546 374.66 142.369 372.41C148.469 367.548 151.464 365.866 155.5 365.035C157.83 364.556 158.5 363.881 158.5 362.015C158.5 359.218 155.152 356.968 146.32 353.83C136.466 350.327 134.93 349.998 134.526 351.305ZM57.0002 353.698C57.0002 354.011 60.1622 357.596 64.0262 361.664C67.8902 365.732 73.0002 372.1 75.3802 375.813C80.9432 384.491 82.5152 386 85.9992 386C92.5032 386 95.3302 375.791 90.7352 368.898C89.1512 366.522 85.9192 364.235 79.9852 361.292C72.1142 357.389 57.0002 352.395 57.0002 353.698ZM960.288 364.89C956.123 372.185 931.042 392 925.972 392C923.627 392 920.062 385.029 916.002 372.5C913.472 364.692 912.135 362.465 910.788 363.812C909.394 365.206 914.493 388.489 918.896 400.831C926.17 421.222 941.101 446.626 955.814 463.644C964.431 473.612 965.938 474.176 974.171 470.518C979.037 468.356 982.539 467.595 989.324 467.227C994.177 466.964 997.777 466.392 997.324 465.956C996.871 465.521 993.8 463.712 990.5 461.936C972.067 452.015 958.024 440.731 946.69 426.732C938.669 416.825 930.576 404.167 929.492 399.832C928.677 396.575 927.939 397.004 949.193 388.353C971.69 379.196 974.962 378.07 979.191 378.033C983.95 377.991 984.798 376.487 981.855 373.311C978.877 370.098 965.519 360.997 963.795 361.008C963.083 361.012 961.505 362.759 960.288 364.89ZM859.765 371.527L856.029 375L841.265 374.905C833.144 374.853 820.875 374.496 814 374.111C807.125 373.726 801.306 373.551 801.068 373.721C800.831 373.891 802.109 375.549 803.909 377.406L807.181 380.782L829.887 380.247C853.803 379.683 857 380.123 857 383.978C857 387.398 850.925 404.269 846.01 414.5C836.487 434.32 822.011 453.405 803.431 470.634C790.841 482.31 790.762 484.731 803.209 477.503C818.001 468.912 826.032 462.506 836.334 451.08C845.967 440.396 857.228 423.158 866.07 405.564C872.573 392.622 874.228 390.103 877.82 387.684C880.119 386.135 882 384.257 882 383.511C882 381.221 877.218 376.311 870.842 372.053C867.504 369.824 864.486 368.012 864.136 368.027C863.786 368.042 861.819 369.617 859.765 371.527ZM96.3612 455.75C96.6802 457.813 97.2432 462.97 97.6112 467.211C98.1702 473.646 97.9902 475.367 96.5242 477.604L94.7682 480.284L52.7882 479.78L10.8092 479.275L14.2292 482.695L17.6492 486.115L55.5742 486.308L93.5002 486.5L93.8202 489.292C94.2822 493.31 90.1952 499.653 82.5192 506.834C71.3672 517.266 51.8892 525.486 29.0742 529.388C23.8892 530.275 18.2082 531 16.4492 531C14.6892 531 11.7322 531.304 9.8762 531.675C6.5212 532.346 6.5322 532.356 12.0012 533.632C19.4702 535.375 40.4982 535.317 51.5582 533.523C79.5152 528.988 99.4902 516.424 108.429 497.75C110.47 493.487 112.671 490.029 113.32 490.065C113.969 490.101 117.2 493.492 120.5 497.601C134.342 514.835 156.134 530.444 176.967 538.047C185.314 541.094 189 541.705 189 540.043C189 538.403 202.548 528.049 208.67 525.011C213.979 522.376 214.232 522.11 211.5 522.036C187.348 521.383 166.745 516.919 149.36 508.572C134.198 501.293 119 490.552 119 487.115C119 486.315 129.436 486 155.935 486C180.042 486 193.847 485.624 195.685 484.917L198.5 483.834L194.5 480.43C192.3 478.558 187.572 475.478 183.994 473.587C176.625 469.691 176.316 469.745 169.253 476.171L165.007 480.035L140.253 479.767L115.5 479.5L115.57 472.928C115.61 469.184 116.387 464.49 117.376 462.019C118.855 458.321 118.907 457.478 117.724 456.295C115.794 454.365 106.464 452.026 100.641 452.012L95.7812 452L96.3612 455.75ZM457 489.31C457 489.424 455.684 493.237 454.077 497.783C447.352 516.8 433.403 537.573 414.166 557.22C410.008 561.466 406.905 565.239 407.27 565.604C408.473 566.806 418.833 560.977 427.771 554.069C432.605 550.334 442.133 541.703 448.945 534.889L461.331 522.5L477.416 522.228C486.626 522.072 494.13 522.371 494.975 522.926C496.124 523.682 496.599 527.481 497.125 540.145C497.496 549.083 497.411 557.419 496.936 558.67C496.46 559.921 494.952 561.225 493.584 561.568C492.216 561.912 482.863 561.986 472.799 561.733C457.579 561.352 453.433 560.915 448.161 559.137C444.674 557.962 441.366 557 440.809 557C440.132 557 440.038 565.41 440.524 582.316C440.924 596.239 440.932 608.64 440.54 609.873C439.39 613.497 436.226 613.965 418.805 613.086C409.837 612.634 402.298 612.444 402.051 612.664C401.804 612.884 403.025 614.487 404.764 616.226L407.926 619.387L450.883 619.107L493.841 618.828L495.582 621.485C497.206 623.964 497.242 625.951 496.108 651.037C495.234 670.394 495.197 678.499 495.976 679.954C498.228 684.163 506.017 683.381 512.001 678.345L514.952 675.863L514.32 649.098L513.687 622.333L516.066 620.666C518.193 619.177 522.815 619 559.663 619C587.327 619 601.095 618.655 601.53 617.952C602.39 616.56 596.976 611.569 588.436 605.878C577.857 598.829 577.956 598.826 572.046 606.347C569.259 609.893 566.272 613.065 565.408 613.397C564.544 613.729 553.309 614 540.441 614H517.046L515.463 611.584C513.203 608.135 513.679 570.442 516 568.977C516.825 568.457 527.85 567.979 540.5 567.916C567.364 567.783 574.5 567.171 574.5 565C574.5 563.389 556.583 551 554.253 551C553.482 551 550.257 553.475 547.085 556.5L541.319 562H529.216C513.361 562 514 562.849 514 541.777C514 527.333 514.169 525.831 516 524C517.914 522.086 519.344 521.999 549.25 521.985C568.709 521.975 581.066 521.586 582 520.955C583.248 520.11 582.846 519.36 579.601 516.485C577.456 514.585 572.281 510.998 568.101 508.514L560.5 503.999L556.998 507.749C555.073 509.812 552.768 512.625 551.877 514L550.257 516.5H508.893C472.65 516.5 467.492 516.312 467.235 514.978C466.915 513.32 471.76 507.772 476.513 504.351C480.634 501.386 479.304 499.441 469.96 494.773C463.194 491.392 457 488.782 457 489.31ZM496.583 569.441C498.749 572.408 498.63 608.656 496.443 611.777C494.94 613.924 494.312 614 478.134 614C465.257 614 460.933 613.672 459.441 612.583C457.668 611.288 457.473 609.625 457.183 593.348C456.815 572.687 457.237 569.26 460.305 567.977C461.512 567.472 469.85 567.158 478.833 567.279C493.703 567.48 495.292 567.674 496.583 569.441ZM46.0362 672.754C39.2772 685.915 27.5712 702.061 15.1892 715.299C12.2062 718.489 10.0032 721.336 10.2932 721.627C11.4962 722.829 31.6482 708.949 44.1152 698.33C51.4772 692.061 59.8502 685.484 62.7222 683.715C65.5942 681.947 67.9562 679.984 67.9722 679.354C68.0262 677.171 53.4432 665.994 50.5542 666.004C49.9742 666.006 47.9412 669.043 46.0362 672.754ZM94.0602 666.963C92.8662 667.701 92.8382 668.517 93.8872 672.019C94.5762 674.315 95.4012 682.677 95.7222 690.6C96.5212 710.311 97.4512 709.419 77.0802 708.464L61.6392 707.741L63.7882 711.12L65.9372 714.5H79.5432C91.5322 714.5 93.3072 714.716 94.4832 716.316C96.7492 719.4 97.2262 736.318 96.5912 791C96.2552 819.875 95.9812 845.266 95.9802 847.425C95.9802 852.014 99.0842 856 102.659 856C103.929 856 106.438 854.687 108.234 853.082L111.5 850.164L111.137 784.195L110.774 718.226L112.887 716.113C114.871 714.129 116.032 714 131.893 714C149.782 714 150.585 713.779 148.926 709.319C148.006 706.843 138.53 699 136.458 699C135.709 699 133.74 700.971 132.083 703.38C128.535 708.536 127.572 709 120.418 709C111.871 709 111 707.581 111 693.65C111 682.76 111.119 682.124 113.929 677.94C115.54 675.541 116.634 673.217 116.361 672.774C115.616 671.57 109.116 669.027 104.008 667.942C101.529 667.416 98.5962 666.782 97.4922 666.534C96.3872 666.286 94.8432 666.479 94.0602 666.963ZM121.363 671.019C122.76 672.68 125.316 676.689 127.042 679.928C131.06 687.467 133.46 690 136.584 690C137.963 690 140.246 688.845 141.657 687.434C144.95 684.141 144.292 679.928 139.756 675.248C136.521 671.911 126.566 668 121.306 668H118.822L121.363 671.019ZM182.203 677.187C181.267 678.94 179.456 681.466 178.181 682.802C175.921 685.167 175.586 685.213 165.181 684.58C159.306 684.223 152.779 683.676 150.674 683.365L146.849 682.799L148.807 686.616L150.766 690.434L176.133 690.121C190.085 689.949 201.838 689.599 202.25 689.345C205.086 687.594 200.45 681.681 192.27 676.618C186.623 673.123 184.306 673.254 182.203 677.187ZM52.3222 714.254C51.8872 714.939 50.5752 717.525 49.4072 720C45.3832 728.525 22.7302 758.599 9.5002 772.979C-1.3128 784.731 -1.3458 784.791 4.8102 781.414C7.7302 779.811 15.3802 774.385 21.8102 769.356C32.0442 761.35 33.6872 760.39 35.0002 761.642C36.2892 762.871 36.5012 769.303 36.5052 807.388C36.5102 857.132 36.2962 855.626 43.2482 854.694C51.5522 853.58 53.0742 849.72 51.8032 833C51.2802 826.125 50.9982 808.042 51.1762 792.815L51.5002 765.131L54.4722 762.029C58.3952 757.935 57.1532 755.857 49.9732 754.495C47.0522 753.941 44.4632 752.89 44.2202 752.16C43.7932 750.879 61.1632 733.123 65.9542 729.943C68.2772 728.401 68.2822 728.358 66.4702 725.443C61.8292 717.978 53.9262 711.728 52.3222 714.254ZM188.463 727.625L184.865 733.249L161.433 732.821C148.545 732.585 138.003 732.642 138.007 732.946C138.01 733.251 138.899 734.844 139.982 736.487L141.95 739.473L156.352 739.142C170.455 738.817 170.787 738.858 172.377 741.128C173.817 743.184 174 748.606 174 789.223C174 844.556 175.636 839.409 158.224 838.862C145.419 838.461 142.956 839.567 150.208 842.463C152.68 843.45 156.933 846.684 160.237 850.088C167.173 857.235 169.601 857.578 179.049 852.75C190.346 846.976 189.552 851.664 189.164 793.032L188.827 742.234L191.136 740.617C192.775 739.47 195.668 739 201.1 739C209.371 739 211.333 737.984 209.974 734.405C208.767 731.223 196.369 722.013 193.281 722.004C192.61 722.002 190.442 724.531 188.463 727.625ZM125.402 741.25C128.786 753.229 130.978 771.899 131.848 796.154C132.422 812.176 132.773 815.092 134.332 816.814C138.324 821.226 145.799 820.224 148.547 814.909C153.208 805.896 146.904 773.674 136.397 752.798C131.449 742.968 123.542 734.663 125.402 741.25ZM69.9542 743.139C69.9292 743.337 69.7582 752.05 69.5762 762.5C69.1012 789.651 65.7462 809.068 59.3432 821.723C57.8732 824.628 56.9142 827.248 57.2122 827.546C57.5102 827.843 60.3192 825.255 63.4542 821.793C74.3282 809.788 81.0102 792.323 83.2282 770.11C84.1842 760.537 84.7472 758.265 86.7592 755.875C88.0752 754.31 89.0012 752.246 88.8172 751.288C88.4262 749.257 79.1872 744.459 73.7502 743.464C71.6882 743.086 69.9792 742.94 69.9542 743.139ZM576.924 812.25C575.225 814.587 573.102 817.735 572.205 819.245C571.173 820.983 569.462 822.17 567.538 822.483C565.867 822.755 550.775 822.625 534 822.194C503.847 821.419 503.443 821.381 498.5 818.817C493.104 816.018 483.473 812.861 482.697 813.637C482.434 813.899 482.948 816.676 483.838 819.807C486.338 828.6 486.241 898.75 483.707 915C478.624 947.59 468.987 969.316 451.291 988.074C447.698 991.883 445.28 995 445.919 995C450.789 995 466.976 981.684 475.184 970.926C486.024 956.717 493.006 940.598 496.817 920.98C499.904 905.09 499.988 904.396 500.914 886.925C501.865 868.981 502.256 868 508.469 868C513.937 868 515.581 870.078 516.934 878.706C519.347 894.087 524.996 913.071 531.691 928.298L535.23 936.347L533.23 940.463C527.053 953.178 502.223 978.22 484.667 989.44C478.217 993.562 477.857 994.851 483.683 992.962C496.924 988.668 515.438 976.435 530.027 962.34C537.041 955.564 541.523 951.954 542.653 952.172C544.362 952.501 546.043 954.514 554.716 966.617C559.73 973.613 573.13 988.816 574.377 988.924C574.86 988.966 578.225 987.537 581.856 985.75C587.865 982.792 589.29 982.5 597.729 982.5C602.828 982.5 607 982.393 607 982.261C607 982.13 603.5 980.263 599.222 978.112C588.981 972.962 577.337 964.234 567.642 954.439C558.92 945.627 554 939.086 554 936.304C554 935.294 555.844 931.325 558.098 927.484C566.623 912.955 572.317 900.053 577.07 884.5C579.58 876.288 580.457 875 583.541 875C591.095 875 590.728 871.408 582.357 863.399C573.843 855.254 572.717 854.913 568.346 859.151L564.892 862.5L535.837 862.794C510.808 863.047 506.451 862.871 504.391 861.521C502.054 859.989 502 859.63 502 845.668C502 834.912 502.351 830.903 503.419 829.441C504.78 827.578 506.788 827.48 553.086 827C590.765 826.61 601.427 826.223 601.756 825.234C601.988 824.538 600.675 822.559 598.839 820.838C593.525 815.856 582.827 808 581.357 808C580.618 808 578.623 809.913 576.924 812.25ZM432.162 813.305C431.377 814.251 431.478 816.111 432.527 820.055C433.574 823.987 433.98 831.394 433.988 846.715C433.999 866.812 433.896 867.985 432.028 868.985C430.67 869.712 425.147 869.751 414.278 869.109C405.6 868.596 398.306 868.369 398.068 868.604C397.831 868.838 399.175 870.617 401.056 872.557L404.475 876.085L417.504 875.409C429.284 874.798 430.676 874.905 432.017 876.518C433.233 877.982 433.555 883.368 433.806 906.446C434.096 933.122 434.012 934.679 432.195 936.323C429.298 938.945 414.856 941.35 406.299 940.635C402.176 940.291 398.849 940.435 398.517 940.973C397.794 942.143 406.466 959.69 409.28 962.75C410.418 963.987 411.816 965 412.386 965C412.957 965 415.241 963.238 417.462 961.085C420.302 958.331 429.523 953.162 448.547 943.66C463.423 936.229 476.698 929.182 478.047 927.999L480.5 925.848L478 926.411C476.625 926.72 470.712 928.201 464.859 929.7C455.874 932.002 453.968 932.219 452.609 931.091C451.205 929.925 451 926.404 451 903.413C451 878.392 451.097 877.018 452.934 876.035C453.998 875.466 460.468 875 467.312 875C481.25 875 483.243 874.22 480.244 869.938C477.863 866.538 474.235 863.402 469.071 860.279L464.641 857.6L462.571 860.521C459.792 864.441 455.348 869.004 454.327 868.985C450.973 868.923 450.434 864.925 450.794 842.785C450.998 830.21 451.033 830.032 454 826.653C458.86 821.117 458.743 820.992 443.404 815.44C432.355 811.44 433.525 811.663 432.162 813.305ZM561.178 869.095C562.903 870.019 563.126 870.812 562.593 874.145C561.519 880.86 556.314 895.933 550.729 908.5C546.09 918.941 545.09 920.5 543.035 920.5C541.026 920.5 539.757 918.711 534.526 908.5C528.367 896.475 523.283 882.528 522.248 874.814C521.384 868.374 522.483 868 542.257 868C552.574 868 559.927 868.426 561.178 869.095ZM820.811 900.054L823.121 900.98L822.811 919.991L822.5 939.002H826L829.5 939.001V929.335C829.5 923.117 829.898 919.536 830.615 919.296C831.228 919.091 834.357 922.428 837.569 926.712C847.456 939.897 847.583 940.001 853.937 939.996L859.5 939.993L856.37 938.084C854.648 937.034 849.362 931.089 844.623 924.872L836.006 913.569L840.253 909.224C845.246 904.115 849.994 900.995 854.358 899.954C856.564 899.428 854.967 899.193 849 899.166C842.972 899.138 841.154 899.39 842.75 900.031C843.987 900.529 845 901.223 845 901.574C845 902.576 830.767 917 829.778 917C828.88 917 828.888 904.608 829.787 902.166C830.057 901.433 831.228 900.449 832.389 899.98C833.813 899.404 831.897 899.127 826.5 899.127C820.592 899.127 819.104 899.369 820.811 900.054ZM871.309 901.636C869.836 905.475 875.149 908.296 877.333 904.834C878.096 903.625 878.023 902.733 877.07 901.584C875.359 899.523 872.109 899.552 871.309 901.636ZM1016.31 901.636C1014.84 905.475 1020.15 908.296 1022.33 904.834C1023.1 903.625 1023.02 902.733 1022.07 901.584C1020.36 899.523 1017.11 899.552 1016.31 901.636ZM1036.27 917.678C1035.24 922.18 1035.26 922.304 1036.84 920.255C1038.79 917.724 1042.94 916 1047.09 916H1050.05L1043.2 926.25C1039.44 931.888 1036.03 937.063 1035.62 937.75C1035.09 938.654 1035.87 939 1038.44 939C1040.4 939 1042 938.535 1042 937.967C1042 937.398 1045.15 932.238 1049 926.5C1052.85 920.762 1056 915.827 1056 915.533C1056 915.24 1052.27 915 1047.7 915C1043.14 915 1038.94 914.538 1038.37 913.974C1037.67 913.273 1037.01 914.446 1036.27 917.678ZM871.75 916.068C867.968 918.065 866.638 919.46 869.601 918.323C870.481 917.985 871.6 918.337 872.086 919.104C873.316 921.047 873.224 934.713 871.965 937.066C871.006 938.857 871.284 938.994 875.715 938.921C878.347 938.878 879.938 938.615 879.25 938.338C878.348 937.974 878 934.514 878 925.917C878 912.743 878.012 912.762 871.75 916.068ZM889.28 917.328C890.501 919.158 893.713 925.195 896.418 930.743L901.337 940.83L899.641 945.165C896.839 952.33 895.514 953.5 890.204 953.5C886.167 953.5 885.5 953.783 885.5 955.5C885.5 957.077 886.268 957.564 889.133 957.803C892.293 958.067 893.175 957.612 895.904 954.303C897.638 952.201 901.102 945.133 903.65 938.5C910.611 920.379 912.712 916 914.445 916C915.3 916 916 915.55 916 915C916 914.45 913.475 914 910.389 914H904.778L907.108 915.886L909.437 917.772L907.594 923.636C903.893 935.408 904.411 935.243 899.972 926.065C895.528 916.876 895.23 915.348 897.75 914.689C898.712 914.438 896.701 914.18 893.28 914.116L887.06 914L889.28 917.328ZM933.928 915.012C939.915 916.423 942.771 922.469 941.746 931.562C941.134 936.989 939.595 939 936.052 939C932.189 939 929.153 935.235 927.795 928.757C926.809 924.056 926.877 922.54 928.232 919.091C929.116 916.841 929.486 915 929.054 915C926.965 915 922.921 919.53 921.866 923.054C919.292 931.643 925.116 940 933.676 940C942.68 940 948.032 935.073 947.965 926.846C947.899 918.825 942.927 913.94 935 914.109L930.5 914.205L933.928 915.012ZM959 916.057C955.911 917.799 955.794 918 958 917.765C960.5 917.5 960.5 917.501 960.788 927.417C960.999 934.678 960.731 937.554 959.788 938.152C959.01 938.646 960.281 938.976 963 938.987L967.5 939.005L967.177 929.942C966.978 924.333 967.275 920.373 967.958 919.551C969.624 917.543 973.711 917.109 975.981 918.699C977.749 919.938 978 921.219 978 929.007C978 936.422 977.709 938.07 976.25 938.92C974.933 939.687 976.107 939.939 981 939.939C985.893 939.939 987.067 939.687 985.75 938.92C984.292 938.071 984 936.425 984 929.073C984 919.683 984.448 918.679 989.169 917.494C991.138 916.999 992.367 917.367 993.913 918.913C995.672 920.672 996 922.225 996 928.8C996 933.533 995.528 937.072 994.8 937.8C993.867 938.733 994.478 939 997.55 939.001L1001.5 939.002L1000.86 928.751C1000.07 916.169 1000.3 917.443 998.429 915.571C996.103 913.246 990.795 913.65 986.64 916.47C984.638 917.828 983 918.535 983 918.041C983 913.913 974.014 912.628 969.573 916.121L966.876 918.243L966.321 916.121C965.638 913.506 963.557 913.488 959 916.057ZM1016.25 915.973C1011.44 918.158 1011.03 918.693 1014.25 918.579C1016.4 918.504 1016.51 918.898 1016.79 927.349C1016.98 933.013 1016.66 936.702 1015.92 937.599C1014.95 938.766 1015.53 939 1019.41 939C1023.71 939 1023.99 938.849 1023.04 937.066C1022.47 936.002 1022 930.377 1022 924.566C1022 918.755 1021.66 914.01 1021.25 914.022C1020.84 914.034 1018.59 914.912 1016.25 915.973ZM1069.12 915.885C1066.48 917.294 1066.1 917.822 1067.37 918.312C1068.66 918.807 1069 920.386 1069 925.904C1069 933.035 1070.2 937.874 1072.31 939.214C1074.63 940.685 1080.72 940.009 1083.27 938C1086.41 935.53 1087 935.504 1087 937.833C1087 940.839 1087.98 940.985 1092.72 938.687C1097.21 936.51 1097.22 936.498 1094.37 935.992L1091.5 935.484L1091.22 924.742C1091.06 918.834 1090.61 914.019 1090.22 914.042C1089.82 914.065 1087.98 914.894 1086.12 915.885C1083.48 917.294 1083.1 917.822 1084.37 918.312C1085.67 918.812 1086 920.42 1086 926.346C1086 934.012 1085.29 935.546 1081.5 936.094C1078.25 936.564 1075.26 935.093 1074.62 932.717C1074.3 931.498 1074.02 926.788 1074.01 922.25C1074.01 917.712 1073.66 914.019 1073.25 914.042C1072.84 914.065 1070.98 914.894 1069.12 915.885ZM1055.53 932.91C1054.62 935.782 1052.28 937.314 1047.66 938.069C1043.95 938.676 1044.23 938.763 1050.25 938.875L1057 939V935C1057 930.652 1056.48 929.913 1055.53 932.91ZM41.6282 994.43C34.1412 1009.14 21.9962 1028.75 10.3812 1044.87C6.2722 1050.58 3.0812 1055.41 3.2902 1055.62C3.4992 1055.83 7.4092 1053.06 11.9802 1049.46C16.5502 1045.86 20.9922 1043.04 21.8512 1043.21C22.7102 1043.38 23.7252 1044.63 24.1062 1046.01C24.4882 1047.38 24.8452 1069.94 24.9002 1096.14C25.0172 1151.77 25.7772 1147.85 14.7212 1148.73C11.0352 1149.03 7.5682 1149.82 7.0172 1150.48C5.7482 1152.01 8.1872 1160.64 11.7542 1167.25C13.6882 1170.83 14.8932 1172 16.6592 1172C17.9472 1172 19.0002 1171.54 19.0002 1170.98C19.0002 1168.67 27.7532 1160.72 36.6182 1154.98C51.1682 1145.55 70.5602 1135.73 73.0542 1136.52C75.2802 1137.22 79.9882 1144.02 84.4742 1153C88.2622 1160.58 90.6882 1163 94.5192 1163C100.846 1163 102.735 1156.5 99.3392 1146.43C96.6102 1138.33 85.0592 1127.59 72.1592 1121.16C58.2152 1114.2 56.3362 1114.31 62.9202 1121.7C68.1132 1127.53 69.0042 1129.92 66.6912 1131.84C64.5512 1133.62 44.0622 1140.15 41.6892 1139.81C39.5482 1139.51 39.4942 1139.13 39.2252 1122.51C38.9802 1107.4 39.1412 1105.37 40.6662 1104.26C41.8762 1103.37 47.1742 1103 58.6242 1103C74.1382 1103 74.8942 1103.09 75.5182 1105.06C76.9682 1109.63 84.4832 1109.74 88.0162 1105.25C89.8682 1102.9 90.0002 1101.15 90.0002 1078.95C90.0002 1065.87 90.2802 1054.44 90.6212 1053.55C90.9632 1052.65 92.5382 1051.26 94.1212 1050.44C97.5862 1048.65 97.7482 1047.05 94.7502 1044.25C92.4002 1042.06 82.9482 1037 81.1992 1037C80.6442 1037 78.3042 1038.58 76.0002 1040.5C68.5072 1046.76 65.0002 1044.99 65.0002 1034.94C65.0002 1029.71 65.4472 1027.7 67.0652 1025.65C68.2012 1024.2 68.8182 1022.51 68.4362 1021.9C67.2182 1019.93 59.5322 1017.08 53.5132 1016.37C47.7042 1015.69 47.6872 1015.7 48.4032 1018.09C49.9132 1023.16 51.0612 1036.99 50.2362 1040.19C49.4812 1043.13 48.9502 1043.54 45.5532 1043.82C41.4202 1044.16 29.6602 1039.16 28.6962 1036.65C28.0382 1034.94 56.3582 1001.8 59.5362 1000.57C62.7982 999.302 64.8962 1001.35 69.5542 1010.33C74.7402 1020.34 77.4372 1023.66 81.4402 1024.98C85.7052 1026.39 88.2412 1025.25 89.9342 1021.16C92.8872 1014.03 86.7852 1005.64 73.8452 999.028C67.3472 995.709 66.5322 994.981 66.7772 992.71C66.9822 990.803 66.2102 989.499 63.7762 987.642C60.3992 985.067 51.7492 981 49.6482 981C48.9952 981 45.3862 987.043 41.6282 994.43ZM138.338 982.437C141.411 990.447 142.547 1009.43 140.128 1012.35C138.981 1013.73 136.643 1014 125.945 1014H113.134L109.446 1009.5C107.418 1007.03 105.363 1005 104.88 1005C104.396 1005 104 1006.5 104 1008.32C104 1014.3 101.071 1020.58 95.3172 1026.94C89.0502 1033.86 88.2542 1037.17 92.1022 1040.28C98.4402 1045.42 110.893 1036.86 112.586 1026.21C113.718 1019.09 112.989 1019.22 149.776 1019.74C176.988 1020.13 182.696 1020.46 183.666 1021.68C184.566 1022.82 184.412 1024.67 182.985 1029.81C181.969 1033.47 181.325 1036.66 181.554 1036.89C181.783 1037.12 184.564 1035.72 187.735 1033.78C196.593 1028.36 199.058 1027.33 204.975 1026.57C207.986 1026.19 211.012 1025.41 211.699 1024.84C214.474 1022.53 207.848 1015.53 198.251 1010.61C195.111 1009.01 194.844 1009.04 190.259 1011.48C185.912 1013.79 184.467 1014 172.958 1014C164.524 1014 160.006 1013.61 159.2 1012.8C158.487 1012.09 158 1008.66 158 1004.35C158 997.711 158.217 996.94 160.547 995.297C161.948 994.309 164.085 992.714 165.297 991.753L167.5 990.006L164.807 987.6C163.043 986.024 159.03 984.469 153.183 983.097C142.437 980.574 137.539 980.356 138.338 982.437ZM1104 1000C1101.01 1001.64 1100.83 1001.92 1102.75 1001.96L1105 1002V1022.45C1105 1040.87 1104.83 1043 1103.25 1043.92C1101.93 1044.69 1103.02 1044.95 1107.75 1044.97L1114 1045L1112 1043C1109.69 1040.69 1109.25 1033.87 1111.29 1032.17C1112.29 1031.35 1113.57 1032.43 1116.8 1036.8C1120.62 1041.99 1120.85 1042.61 1119.31 1043.75C1117.9 1044.79 1118.88 1044.99 1125.06 1044.96C1132.25 1044.92 1132.39 1044.88 1129.34 1043.55C1126.31 1042.23 1116.1 1030.63 1116.03 1028.42C1115.97 1026.48 1120.71 1022.88 1125.14 1021.49L1129.5 1020.13L1123.13 1020.07C1117.65 1020.01 1116.93 1020.21 1117.97 1021.46C1118.96 1022.66 1118.4 1023.64 1114.84 1026.93L1110.5 1030.93L1110.23 1014.47C1109.93 996.461 1110.03 996.699 1104 1000ZM836 1004.32C838.202 1005.17 840.263 1007.02 841.557 1009.31C844.461 1014.45 844.675 1014.48 844.302 1009.77C844.119 1007.46 843.621 1005.22 843.194 1004.79C842.768 1004.37 840.187 1003.78 837.46 1003.5L832.5 1002.98L836 1004.32ZM825.688 1006.26C823.678 1007.87 822.713 1009.72 822.308 1012.74C821.778 1016.69 822.008 1017.23 825.718 1020.74C827.907 1022.81 831.75 1025.95 834.259 1027.71C840.043 1031.79 841.88 1036.4 839.532 1040.94C838.189 1043.54 837.383 1044 834.224 1043.97C829.637 1043.93 827.786 1042.58 824.549 1036.92L822.024 1032.5L822.012 1037.59C822.001 1042.08 822.3 1042.82 824.547 1043.84C825.948 1044.48 829.818 1045 833.147 1045C838.697 1045 839.482 1044.72 842.6 1041.6C848.798 1035.4 846.645 1027.53 837.208 1021.9C830.362 1017.81 828 1014.98 828 1010.87C828 1008.12 828.597 1006.7 830.223 1005.56C832.313 1004.09 832.328 1004 830.473 1004.01C829.388 1004.01 827.234 1005.02 825.688 1006.26ZM1039.71 1020.67C1039.4 1022.23 1038.85 1024.4 1038.5 1025.5C1037.89 1027.38 1037.92 1027.39 1039.03 1025.66C1040.43 1023.46 1045.94 1021 1049.47 1021C1050.86 1021 1052 1021.21 1052 1021.47C1052 1021.73 1048.86 1026.79 1045.03 1032.72C1038.15 1043.36 1038.1 1043.5 1040.62 1043.83C1042.03 1044 1043.3 1044 1043.45 1043.83C1043.6 1043.65 1047.16 1038.33 1051.37 1032L1059.02 1020.5L1050.29 1020.21C1045.49 1020.05 1041.28 1019.45 1040.92 1018.88C1040.57 1018.31 1040.03 1019.11 1039.71 1020.67ZM863.457 1020.4C857.15 1023.15 854.509 1028.42 859.741 1027.82C861.552 1027.61 862.606 1026.82 862.845 1025.5C863.305 1022.95 865.901 1020 867.68 1020C869.391 1020 871 1024.08 871 1028.43C871 1031.45 870.602 1031.88 866.25 1033.49C859.297 1036.06 857 1037.75 857 1040.32C857 1045.19 862.064 1046.48 867.697 1043.04C870.868 1041.11 870.9 1041.11 871.515 1043.05C872.224 1045.28 873.819 1045.5 877.449 1043.84C879.943 1042.71 879.953 1042.66 877.996 1041.29C876.259 1040.07 876 1038.75 876 1031.1C876 1023.85 875.679 1022.02 874.171 1020.66C871.99 1018.68 867.646 1018.58 863.457 1020.4ZM890.75 1021.07C888.688 1022.16 887 1023.17 887 1023.31C887 1023.46 888.237 1023.56 889.75 1023.54C892.5 1023.5 892.5 1023.5 892.797 1031.5C893.148 1040.97 892.606 1043.7 890.249 1044.31C889.287 1044.56 891.638 1044.82 895.473 1044.88C902.053 1044.99 902.32 1044.91 900.223 1043.44C898.229 1042.05 898 1041.03 898 1033.57C898 1025.25 898.001 1025.25 901.105 1023.75C907.393 1020.7 910.168 1023.38 910.582 1032.89C910.937 1041.05 910.363 1043.74 908.147 1044.33C907.241 1044.57 909.425 1044.81 913 1044.85C917.863 1044.92 919.059 1044.68 917.75 1043.92C916.282 1043.07 916 1041.4 916 1033.59C916 1025.55 915.702 1023.89 913.839 1021.52C911.923 1019.09 911.181 1018.83 907.277 1019.27C904.679 1019.57 901.927 1020.66 900.561 1021.94L898.246 1024.12L897.604 1021.56C896.841 1018.52 895.732 1018.44 890.75 1021.07ZM929.75 1021.06C927.688 1022.15 926 1023.17 926 1023.31C926 1023.46 927.237 1023.56 928.75 1023.54C931.5 1023.5 931.5 1023.5 931.797 1031.5C932.148 1040.97 931.606 1043.7 929.249 1044.31C928.287 1044.56 930.638 1044.82 934.473 1044.88C941.053 1044.99 941.32 1044.91 939.223 1043.44C937.228 1042.05 937 1041.03 937 1033.56V1025.23L940.56 1023.54C943.783 1022.01 944.343 1022 946.466 1023.39C949.327 1025.26 950.485 1030.97 949.539 1038.53C949.065 1042.33 948.383 1044.01 947.186 1044.32C946.259 1044.57 948.425 1044.81 952 1044.85C956.863 1044.92 958.059 1044.68 956.75 1043.92C955.282 1043.07 955 1041.4 955 1033.59C955 1025.55 954.702 1023.89 952.839 1021.52C950.923 1019.09 950.181 1018.83 946.277 1019.27C943.649 1019.57 940.926 1020.66 939.52 1021.98L937.165 1024.19L936.832 1021.86C936.401 1018.82 934.383 1018.59 929.75 1021.06ZM979.75 1020.91C980.987 1022.1 982 1023.96 982 1025.04C982 1026.73 981.3 1027 977 1027C971.532 1027 970.873 1026.05 973.617 1022.14L975.234 1019.83L972.252 1021.37C968.583 1023.27 966 1028.45 966 1033.92C966 1037.21 966.686 1038.78 969.423 1041.77C972.557 1045.18 973.296 1045.5 978.173 1045.5C981.728 1045.49 984.425 1044.86 986.281 1043.61C989.824 1041.21 989.354 1040.77 984.764 1042.18C977.76 1044.33 972 1039.53 972 1031.55V1028H980C987.69 1028 988 1027.91 988 1025.69C988 1022.1 985.857 1020.01 981.497 1019.35L977.5 1018.74L979.75 1020.91ZM1001 1021C998.012 1022.64 997.829 1022.92 999.75 1022.96C1001.93 1023 1002 1023.31 1002 1032.95C1002 1041.37 1001.73 1043.06 1000.25 1043.92C998.933 1044.69 1000.11 1044.94 1005 1044.94C1009.89 1044.94 1011.07 1044.69 1009.75 1043.92C1008.29 1043.07 1008 1041.42 1008 1033.9V1024.9L1011.2 1023.56C1017.72 1020.82 1020 1023.68 1020 1034.64C1020 1041.45 1019.69 1043.08 1018.25 1043.92C1016.93 1044.69 1018.09 1044.95 1022.97 1044.97C1029.11 1045 1029.33 1044.92 1027.22 1043.44C1025.19 1042.02 1025 1041.07 1025 1032.44C1025 1024.33 1024.72 1022.72 1023 1021C1020.42 1018.42 1015.45 1018.43 1011.23 1021C1007.22 1023.45 1007.35 1023.45 1006.71 1021C1006.07 1018.56 1005.46 1018.56 1001 1021ZM1074.93 1020.98C1070.68 1023.22 1068.59 1025.52 1069.47 1026.96C1070.89 1029.25 1073.98 1027.97 1075.44 1024.49C1078.35 1017.53 1083 1019.46 1083 1027.62V1031.86L1077.26 1034C1070.28 1036.61 1069 1037.61 1069 1040.42C1069 1045.03 1074.68 1046.57 1079.66 1043.31C1082.09 1041.71 1082.32 1041.71 1083.48 1043.31C1084.94 1045.31 1086.02 1045.4 1089.45 1043.84C1091.94 1042.71 1091.95 1042.66 1090 1041.29C1088.26 1040.07 1088 1038.75 1088 1031.1C1088 1023.85 1087.68 1022.02 1086.17 1020.66C1083.79 1018.5 1079.38 1018.62 1074.93 1020.98ZM1150.78 1020.56C1152.55 1021.8 1153 1023.09 1153 1026.94V1031.77L1147.25 1034.05C1140.05 1036.9 1139 1037.71 1139 1040.42C1139 1045.07 1144.61 1046.53 1150.08 1043.29C1152.84 1041.66 1153.04 1041.67 1154.35 1043.47C1155.59 1045.15 1156.07 1045.21 1158.88 1044.05C1161.74 1042.87 1161.87 1042.63 1160.31 1041.48C1158.96 1040.5 1158.47 1038.13 1158.04 1030.57C1157.45 1020.09 1156.86 1019.04 1151.53 1019.02L1148.56 1019L1150.78 1020.56ZM1144.36 1020.99C1141.88 1021.99 1138.84 1025.93 1139.6 1027.16C1140.42 1028.49 1145 1028.14 1145.01 1026.75C1145.01 1026.06 1145.66 1024.26 1146.45 1022.75C1147.97 1019.82 1147.74 1019.63 1144.36 1020.99ZM871 1036.3C871 1040.14 869.497 1042 866.407 1042C864.41 1042 863 1040.31 863 1037.9C863 1036.97 868.851 1033.01 870.25 1033C870.663 1033 871 1034.49 871 1036.3ZM1083 1036.3C1083 1040.14 1081.5 1042 1078.41 1042C1076.41 1042 1075 1040.31 1075 1037.9C1075 1036.97 1080.85 1033.01 1082.25 1033C1082.66 1033 1083 1034.49 1083 1036.3ZM1153 1036.98C1153 1040.4 1152.65 1041.05 1150.49 1041.59C1147.77 1042.28 1145 1040.65 1145 1038.36C1145 1037.08 1150.51 1033.01 1152.25 1033C1152.66 1033 1153 1034.79 1153 1036.98ZM1057.45 1039.58C1056.38 1041 1053.93 1042.53 1052 1042.98C1048.8 1043.73 1048.99 1043.8 1054.25 1043.9L1060 1044V1040.5C1060 1038.58 1059.86 1037 1059.7 1037C1059.53 1037 1058.52 1038.16 1057.45 1039.58ZM169.634 1044.89C164.769 1048.76 160.452 1049.37 142.193 1048.75C130.352 1048.34 126.335 1047.81 121.5 1046.03C118.2 1044.81 113.975 1043.57 112.111 1043.28L108.721 1042.75L109.269 1047.62C109.57 1050.31 110.372 1056.33 111.051 1061C111.964 1067.29 112.139 1082.32 111.722 1118.72C111.171 1166.81 111.204 1167.99 113.152 1170.47C117.792 1176.37 129 1171.19 129 1163.15C129 1159.27 130.628 1159 154.234 1159H177.067L179.136 1162.51C181.739 1166.92 184.814 1167.74 189.706 1165.35C195.64 1162.45 195.999 1160.88 195.306 1140.89L194.694 1123.25L197.347 1121.51C198.806 1120.55 200 1119.2 200 1118.51C200 1115.7 187.4 1106 183.746 1106C183.001 1106 180.866 1107.58 179 1109.5L175.608 1113H152.926C135.525 1113 129.993 1112.7 129.165 1111.7C127.643 1109.87 127.444 1088.16 128.935 1086.66C130.49 1085.1 159.511 1084.48 163.309 1085.93C165.032 1086.58 166.511 1088.17 167.173 1090.07C168.54 1093.99 171.954 1095.36 176.981 1094.01C183.162 1092.34 183.343 1091.74 183.103 1073.8L182.887 1057.7L185.936 1054.91C189.703 1051.47 189.238 1050 183.161 1046.12C176.027 1041.56 174.051 1041.38 169.634 1044.89ZM74.8002 1051.2C76.2382 1052.64 76.4152 1066.79 75.0232 1069C74.2632 1070.21 71.0022 1070.56 58.4462 1070.82C38.9832 1071.22 39.0002 1071.23 39.0002 1060.05C39.0002 1055.43 39.4762 1051.92 40.2002 1051.2C41.8822 1049.52 73.1182 1049.52 74.8002 1051.2ZM166.128 1055.65C168.296 1058.26 168.627 1074.39 166.577 1077.52L164.954 1080H147.534C130.666 1080 130.064 1079.93 128.557 1077.78C126.332 1074.6 126.343 1057.8 128.571 1055.57C130.971 1053.17 164.126 1053.24 166.128 1055.65ZM74.4292 1077.57C76.3822 1079.53 76.6762 1093.92 74.8002 1095.8C73.1182 1097.48 41.8822 1097.48 40.2002 1095.8C38.5872 1094.19 38.5872 1078.81 40.2002 1077.2C41.0322 1076.37 46.2292 1076 57.1292 1076C70.0942 1076 73.1332 1076.28 74.4292 1077.57ZM821.904 1111.05L825.307 1113.16L824.687 1128.91C824.346 1137.57 823.764 1145.45 823.394 1146.42C823.024 1147.38 821.772 1148.55 820.611 1149.02C819.127 1149.62 820.431 1149.87 825 1149.87C829.594 1149.87 830.878 1149.62 829.378 1149.02C826.538 1147.87 825.866 1144.6 826.114 1133.14C826.458 1117.16 826.525 1117.17 835.41 1134.58C839.761 1143.11 843.654 1149.72 844.061 1149.29C844.469 1148.86 847.628 1141.84 851.081 1133.7C854.893 1124.71 857.642 1119.41 858.078 1120.2C858.676 1121.28 859.537 1143.86 859.127 1147.68C859.057 1148.32 858.212 1149.06 857.25 1149.31C856.288 1149.56 859.1 1149.75 863.5 1149.73C867.9 1149.72 870.298 1149.52 868.83 1149.29C866.285 1148.9 866.134 1148.55 865.61 1141.69C864.364 1125.4 864.02 1113.43 864.765 1112.3C865.2 1111.64 866.669 1110.66 868.028 1110.11C870.264 1109.22 870.102 1109.12 866.332 1109.06C864.039 1109.03 861.547 1109.24 860.793 1109.53C860.039 1109.82 856.515 1116.79 852.961 1125.01C849.408 1133.24 846.263 1139.98 845.974 1139.99C845.685 1139.99 841.86 1133.14 837.474 1124.75L829.5 1109.5L824 1109.22L818.5 1108.94L821.904 1111.05ZM178.041 1121.08C179.676 1124.13 178.919 1149.2 177.128 1151.35C175.925 1152.8 172.919 1153 152.913 1153C130.256 1153 130.06 1152.98 128.837 1150.75C127.138 1147.65 126.406 1123.98 127.922 1121.15C129.047 1119.04 129.549 1119 153 1119C176.2 1119 176.964 1119.06 178.041 1121.08ZM881.5 1126.26C878.832 1127.63 877.999 1128.48 879 1128.81C881.497 1129.63 881.969 1131.19 881.985 1138.69C881.998 1144.77 882.362 1146.31 884.323 1148.59C886.325 1150.92 887.139 1151.2 890.221 1150.62C892.188 1150.25 894.968 1149.03 896.399 1147.9C898.199 1146.49 899.005 1146.26 899.015 1147.18C899.056 1150.72 900.63 1151.23 904.864 1149.07C909.521 1146.69 910.045 1145.91 906.75 1146.26C904.565 1146.49 904.486 1146.18 904 1135.5C903.45 1123.41 903.59 1123.58 897.117 1127C894.091 1128.6 893.867 1128.92 895.75 1128.96C897.888 1129 898 1129.39 898 1136.84C898 1144.27 897.867 1144.74 895.453 1145.84C892.133 1147.35 890.797 1147.3 888.441 1145.58C886.812 1144.39 886.42 1142.55 886 1134.18L885.5 1124.19L881.5 1126.26ZM920.866 1125.51C915.85 1128.24 916.307 1134.29 921.785 1137.69C928.592 1141.91 930.734 1145.87 927.8 1148.8C927.093 1149.51 927.022 1150 927.626 1150C929.756 1150 933 1145.31 933 1142.23C933 1139.8 932.18 1138.45 929.377 1136.29C920.812 1129.69 920.425 1129.24 921.641 1127.31C923.172 1124.88 927.993 1125.31 930.25 1128.08L932 1130.22V1127.72C932 1123.84 926.096 1122.67 920.866 1125.51ZM955.93 1125.27C957.267 1125.94 958.691 1127.74 959.094 1129.25L959.827 1132H954.414C951.436 1132 949 1131.75 949 1131.43C949 1130.35 951.31 1126.49 952.4 1125.77C953.196 1125.23 953.192 1125.03 952.385 1125.02C951.772 1125.01 950.075 1125.94 948.615 1127.09C939.041 1134.62 942.543 1149.41 954.213 1150.72C957.199 1151.06 959.692 1150.69 961.771 1149.62C966.331 1147.26 966.487 1146.15 962.093 1147.32C954.742 1149.28 949 1144.56 949 1136.55V1133H956.833C961.142 1133 964.93 1132.74 965.252 1132.42C965.573 1132.09 965.368 1130.49 964.796 1128.84C963.697 1125.69 960.661 1123.99 956.185 1124.02L953.5 1124.03L955.93 1125.27ZM978.519 1126.24C974.773 1128.16 974.67 1128.33 976.769 1129.11C978.822 1129.87 979 1130.57 979 1137.91C979 1144.82 979.312 1146.25 981.323 1148.59C983.325 1150.92 984.139 1151.2 987.221 1150.62C989.188 1150.25 991.968 1149.03 993.399 1147.9C995.199 1146.49 996.005 1146.26 996.015 1147.18C996.056 1150.72 997.63 1151.23 1001.86 1149.07C1006.28 1146.82 1007.38 1145.43 1003.88 1146.54C1000.66 1147.56 1000.03 1145.57 1000.02 1134.26L1000 1124.03L995.368 1126.26C991.692 1128.04 991.176 1128.57 992.868 1128.82C994.834 1129.11 995 1129.75 995 1136.91C995 1144.27 994.864 1144.74 992.453 1145.84C989.152 1147.34 987.796 1147.3 985.508 1145.63C983.969 1144.5 983.533 1142.47 983.067 1134.23L982.5 1124.19L978.519 1126.24ZM1015.75 1125.91C1011.22 1128.03 1010.01 1129.07 1013 1128.29C1016.2 1127.45 1016.97 1129.43 1016.97 1138.5C1016.97 1146.77 1016.55 1148.3 1014 1149.27C1013.18 1149.59 1015.65 1149.85 1019.5 1149.86C1024.65 1149.87 1025.91 1149.64 1024.25 1148.97C1022.16 1148.13 1022 1147.45 1022 1139.39C1022 1129.86 1022.96 1128.09 1028.19 1128.03C1032.35 1127.98 1034 1131.25 1033.99 1139.47C1033.97 1146.79 1033.51 1148.32 1031 1149.27C1030.18 1149.59 1032.43 1149.86 1036 1149.89C1040.88 1149.93 1042.06 1149.69 1040.75 1148.92C1039.29 1148.07 1039 1146.42 1039 1138.9V1129.9L1042.2 1128.56C1048.59 1125.87 1051.01 1128.73 1050.99 1138.94C1050.97 1146.78 1050.53 1148.31 1048 1149.27C1047.18 1149.59 1049.43 1149.86 1053 1149.89C1057.88 1149.93 1059.06 1149.69 1057.75 1148.92C1056.27 1148.06 1056 1146.38 1056 1138.13C1056 1129.2 1055.8 1128.16 1053.69 1126.17C1050.66 1123.33 1047.13 1123.42 1042.65 1126.46L1039.02 1128.93L1036.44 1126.35C1034.3 1124.21 1033.23 1123.86 1030.28 1124.34C1028.32 1124.66 1025.71 1125.87 1024.48 1127.02L1022.25 1129.12L1021.6 1126.56C1020.86 1123.6 1020.73 1123.59 1015.75 1125.91ZM917.04 1145.14C916.996 1149.16 918.13 1150.03 923.332 1149.96L926.5 1149.92L923.323 1148.54C921.576 1147.78 919.457 1145.89 918.613 1144.33L917.08 1141.5L917.04 1145.14Z" fill="black"/>
</svg>
